<svg width="80" height="80" viewBox="0 0 80 80" fill="none" xmlns="http://www.w3.org/2000/svg">
<path d="M40.7834 66.4473C35.1863 66.6072 29.6668 65.1241 24.9231 62.1857C20.1795 59.2473 16.4246 54.9855 14.1334 49.9393C11.8422 44.8931 11.1177 39.2892 12.0513 33.8363C12.985 28.3834 15.535 23.3264 19.3788 19.3049C23.2226 15.2834 28.1875 12.478 33.6457 11.2435C39.1038 10.009 44.8101 10.4009 50.0428 12.3696C55.2754 14.3383 59.7995 17.7953 63.0427 22.3035C66.286 26.8118 68.1028 32.1686 68.2634 37.6967C68.3713 41.3668 67.746 45.0219 66.4233 48.4533C65.1005 51.8847 63.1062 55.025 60.5543 57.6949C58.0024 60.3648 54.9428 62.512 51.5505 64.0138C48.1581 65.5156 44.4994 66.3425 40.7834 66.4473ZM77.9834 37.4202C77.761 30.0035 75.3178 22.8184 70.9624 16.7726C66.607 10.7269 60.5349 6.09187 53.5133 3.45327C46.4917 0.814657 38.8358 0.290861 31.5129 1.94806C24.19 3.60527 17.5288 7.3691 12.371 12.764C7.21314 18.1588 3.79015 24.9426 2.53453 32.2582C1.2789 39.5737 2.24699 47.0927 5.31647 53.865C8.38595 60.6374 13.4191 66.3591 19.7798 70.3073C26.1406 74.2555 33.5436 76.253 41.0534 76.0473C46.0477 75.9105 50.9657 74.8024 55.5258 72.7862C60.086 70.7701 64.1989 67.8856 67.6291 64.2978C71.0592 60.71 73.7394 56.4893 75.5161 51.8773C77.2928 47.2653 78.1312 42.3525 77.9834 37.4202Z" fill="#0066B3"/>
<path d="M39.9334 65.7856C32.7153 65.723 25.8087 62.873 20.6909 57.8453C15.5732 52.8177 12.6508 46.0116 12.5488 38.8831C12.4469 31.7545 15.1736 24.8697 20.1456 19.7013C25.1175 14.5329 31.94 11.4915 39.1534 11.2276H39.9634C47.2276 11.2178 54.2034 14.0348 59.3796 19.0686C64.5559 24.1023 67.5158 30.9475 67.6184 38.1214C67.721 45.2952 64.9579 52.2202 59.9277 57.3963C54.8974 62.5724 48.005 65.5829 40.7434 65.7757H39.9334M39.9334 66.4473H40.7634C48.2083 66.2523 55.2755 63.1676 60.4335 57.8618C65.5916 52.556 68.425 45.4564 68.3198 38.1016C68.2145 30.7468 65.1791 23.7291 59.8713 18.5694C54.5635 13.4096 47.4109 10.5234 39.9634 10.5362H39.1334C31.6251 10.641 24.4665 13.6873 19.2323 19.005C13.9982 24.3227 11.1173 31.4762 11.2234 38.8918C11.3295 46.3074 14.4139 53.3776 19.798 58.5471C25.1822 63.7167 32.4251 66.562 39.9334 66.4572" fill="white"/>
<path d="M39.9834 11.8992H39.1934C32.0458 11.9961 25.2299 14.8934 20.2452 19.9536C15.2605 25.0139 12.5153 31.8226 12.6134 38.8819C12.7115 45.9412 15.645 52.673 20.7685 57.5961C25.892 62.5193 32.7858 65.2307 39.9334 65.1338H40.7234C47.7546 64.8738 54.4039 61.9072 59.2494 56.8683C64.0949 51.8294 66.7521 45.1182 66.6528 38.1696C66.5535 31.2209 63.7057 24.5864 58.7182 19.6846C53.7306 14.7827 46.9993 12.0026 39.9634 11.9387L39.9834 11.8992ZM39.9334 67.1091C34.2836 67.0854 28.7639 65.4324 24.0524 62.353C19.3408 59.2736 15.6425 54.9021 13.412 49.7753C11.1814 44.6486 10.5157 38.99 11.4966 33.4947C12.4775 27.9994 15.0623 22.9067 18.9334 18.8424C21.5336 16.1037 24.6575 13.9011 28.1247 12.3618C31.5918 10.8225 35.3335 9.97716 39.1334 9.8745H39.9834C47.6747 9.76841 55.0936 12.6843 60.6081 17.9807C66.1226 23.2771 69.281 30.5202 69.3884 38.1165C69.4958 45.7128 66.5435 53.0401 61.1809 58.4866C55.8183 63.933 48.4847 67.0524 40.7934 67.1585H39.9334" fill="#0066B3"/>
<path d="M66.8234 59.8201L65.6134 57.993L64.7434 59.0794L66.8234 59.8201ZM62.5734 59.3461L62.3634 59.2572C62.3634 59.2572 62.2934 59.1979 62.2934 59.1584C62.2749 59.1107 62.2749 59.058 62.2934 59.0103C62.3481 58.9306 62.4082 58.8547 62.4734 58.7831C62.5311 58.6999 62.5946 58.6207 62.6634 58.5461C62.7011 58.5037 62.7449 58.4671 62.7934 58.4374C62.806 58.432 62.8196 58.4292 62.8334 58.4292C62.8471 58.4292 62.8608 58.432 62.8734 58.4374H62.9534L63.9534 58.793L65.1134 57.351L64.5534 56.5214C64.5501 56.4918 64.5501 56.462 64.5534 56.4325C64.5434 56.4003 64.5434 56.3659 64.5534 56.3337L64.6334 56.1954L64.7934 55.988L64.9734 55.7806C64.9893 55.7611 65.009 55.745 65.0313 55.7331C65.0536 55.7212 65.0781 55.7139 65.1034 55.7115C65.1034 55.7115 65.1734 55.7115 65.2134 55.7609C65.2629 55.8155 65.3065 55.8751 65.3434 55.9387L67.8334 59.8201C67.8369 59.853 67.8369 59.8861 67.8334 59.9189C67.8379 59.9583 67.8379 59.998 67.8334 60.0374L67.7334 60.1954C67.6752 60.2783 67.6117 60.3575 67.5434 60.4325L67.3234 60.709L67.1634 60.8572C67.1275 60.8679 67.0892 60.8679 67.0534 60.8572C67.0105 60.866 66.9663 60.866 66.9234 60.8572L62.5734 59.3461ZM67.1734 54.951C67.261 55.0056 67.3603 55.0394 67.4634 55.0498C67.5523 55.0694 67.6445 55.0694 67.7334 55.0498C67.8287 55.0137 67.9143 54.9562 67.9834 54.8819C68.0912 54.7837 68.1794 54.6665 68.2434 54.5362L68.5634 53.9831L67.3134 53.2819L66.9934 53.8448C66.9243 53.9628 66.8705 54.0889 66.8334 54.2201C66.8193 54.3151 66.8193 54.4116 66.8334 54.5066C66.8535 54.5982 66.8908 54.6853 66.9434 54.7633C67.0068 54.8467 67.0889 54.9143 67.1834 54.9609M66.7434 55.8794C66.5582 55.7766 66.3951 55.639 66.2634 55.4745C66.136 55.3228 66.0469 55.1434 66.0034 54.951C65.9539 54.7331 65.9539 54.5071 66.0034 54.2893C66.0681 53.9879 66.1866 53.7003 66.3534 53.4399L67.0034 52.2942C67.019 52.2565 67.042 52.2222 67.0712 52.1933C67.1004 52.1645 67.1351 52.1417 67.1734 52.1263C67.2185 52.1178 67.2649 52.1186 67.3097 52.1288C67.3545 52.139 67.3966 52.1584 67.4334 52.1856L71.1834 54.2695C71.2247 54.2853 71.2617 54.3105 71.2913 54.3431C71.3208 54.3757 71.3421 54.4148 71.3534 54.4572C71.3819 54.5303 71.3819 54.6112 71.3534 54.6843L69.9334 57.1041L69.8834 57.1535H69.8034H69.6734L69.5134 57.0745L69.3534 56.9757C69.3185 56.9513 69.2881 56.9212 69.2634 56.8868C69.2558 56.8644 69.2558 56.8401 69.2634 56.8177C69.2581 56.8069 69.2553 56.7951 69.2553 56.7831C69.2553 56.7711 69.2581 56.7593 69.2634 56.7485L70.2634 54.951L69.1834 54.3485L68.7834 55.0596C68.6595 55.2898 68.5047 55.5024 68.3234 55.6917C68.1778 55.8266 68.0083 55.9338 67.8234 56.0078C67.652 56.0748 67.4664 56.0985 67.2834 56.0769C67.0826 56.0589 66.8882 55.9982 66.7134 55.8991M67.8334 51.1584C67.814 51.1652 67.7928 51.1652 67.7734 51.1584C67.7734 51.1584 67.7734 51.109 67.7734 51.0695C67.7691 51.0169 67.7691 50.9641 67.7734 50.9115C67.7938 50.8273 67.8206 50.7448 67.8534 50.6646C67.8678 50.5469 67.8946 50.4311 67.9334 50.3189C67.9518 50.2656 67.9788 50.2156 68.0134 50.1708C68.033 50.1431 68.061 50.1223 68.0934 50.1115H68.1934H69.3634C69.5062 50.1285 69.6506 50.1285 69.7934 50.1115C69.9017 50.0966 70.0066 50.0632 70.1034 50.0127C70.1867 49.9664 70.2584 49.9023 70.3134 49.8251C70.3709 49.7401 70.4148 49.6468 70.4434 49.5485L70.5134 49.3609L68.6334 48.7485C68.6334 48.7485 68.6334 48.7485 68.5734 48.7485C68.5617 48.72 68.5617 48.6881 68.5734 48.6596C68.5704 48.6103 68.5704 48.5608 68.5734 48.5115L68.6434 48.2843L68.7234 48.0671L68.8034 47.9288L68.8734 47.8695H68.9334L70.8034 48.4819L70.8734 48.3041C70.8917 48.1962 70.8917 48.0861 70.8734 47.9782C70.8785 47.8824 70.8577 47.7869 70.8134 47.7016C70.7698 47.6059 70.7088 47.5188 70.6334 47.4448C70.536 47.3524 70.4324 47.2666 70.3234 47.188L69.3234 46.5066L69.3834 46.3683C69.3768 46.3324 69.3768 46.2956 69.3834 46.2596C69.3803 46.207 69.3803 46.1542 69.3834 46.1016C69.4013 46.0179 69.4246 45.9354 69.4534 45.8547C69.482 45.7738 69.5154 45.6947 69.5534 45.6177C69.5728 45.5666 69.5962 45.517 69.6234 45.4695L69.6934 45.4103C69.7191 45.4003 69.7477 45.4003 69.7734 45.4103C69.7734 45.4103 69.7734 45.4103 69.8334 45.4103H69.9034L70.0034 45.4893L70.8334 46.1214C70.9705 46.2175 71.0978 46.3266 71.2134 46.4473C71.3043 46.5307 71.3819 46.6272 71.4434 46.7337C71.5047 46.8166 71.5489 46.9105 71.5734 47.0103C71.579 47.1122 71.579 47.2144 71.5734 47.3164C71.6261 47.2413 71.6901 47.1747 71.7634 47.1189C71.8368 47.0572 71.9217 47.0102 72.0134 46.9806C72.1243 46.9452 72.2381 46.9188 72.3534 46.9016C72.5098 46.8902 72.6669 46.8902 72.8234 46.9016H73.9634H74.0734C74.0928 46.8948 74.114 46.8948 74.1334 46.9016C74.1334 46.9016 74.1334 46.951 74.1334 46.9905C74.1371 47.0398 74.1371 47.0893 74.1334 47.1387C74.1166 47.2194 74.0932 47.2987 74.0634 47.3757C74.0401 47.457 74.01 47.5363 73.9734 47.6127C73.9734 47.672 73.9734 47.7312 73.8934 47.751C73.8749 47.7819 73.8468 47.8061 73.8134 47.8201H73.7134H72.6234C72.4936 47.8092 72.3631 47.8092 72.2334 47.8201C72.1355 47.8271 72.0402 47.854 71.9534 47.8991C71.8757 47.9451 71.8078 48.0054 71.7534 48.0769C71.6923 48.1613 71.6451 48.2546 71.6134 48.3535L71.5534 48.5411L73.3134 49.114C73.3329 49.1079 73.3539 49.1079 73.3734 49.114C73.3734 49.114 73.3734 49.114 73.3734 49.2029C73.3814 49.2519 73.3814 49.3019 73.3734 49.351C73.3594 49.4292 73.3359 49.5055 73.3034 49.5782C73.2816 49.6523 73.2549 49.7248 73.2234 49.7954C73.2034 49.845 73.1764 49.8915 73.1434 49.9337C73.1282 49.9613 73.1033 49.9823 73.0734 49.993H73.0034L71.3334 49.6275L71.2734 49.8053C71.2351 49.903 71.2147 50.0067 71.2134 50.1115C71.2129 50.2005 71.2334 50.2885 71.2734 50.3683C71.3201 50.4593 71.3808 50.5426 71.4534 50.6152C71.5394 50.7061 71.6369 50.7857 71.7434 50.8522L72.6334 51.4745C72.6607 51.4891 72.6845 51.5093 72.7034 51.5337C72.7134 51.5659 72.7134 51.6003 72.7034 51.6325C72.7115 51.6849 72.7115 51.7381 72.7034 51.7905C72.6903 51.8753 72.6668 51.9582 72.6334 52.0374C72.6103 52.1156 72.5802 52.1917 72.5434 52.2646C72.5241 52.3126 72.5007 52.3588 72.4734 52.4029C72.4553 52.428 72.4313 52.4483 72.4034 52.4621H72.3334H72.2134L72.0634 52.2942L71.3334 51.7411C71.2111 51.6525 71.0942 51.5569 70.9834 51.4547C70.9012 51.3733 70.8275 51.284 70.7634 51.188C70.7146 51.108 70.6776 51.0215 70.6534 50.9312C70.6382 50.8364 70.6382 50.7397 70.6534 50.6448C70.5811 50.7281 70.5007 50.8042 70.4134 50.872C70.3268 50.9329 70.2327 50.9827 70.1334 51.0201C70.017 51.0625 69.8963 51.0923 69.7734 51.109C69.6069 51.1204 69.4398 51.1204 69.2734 51.109H67.8534M71.2334 43.6127C70.9999 43.4912 70.7759 43.3525 70.5634 43.1979C70.4116 43.0922 70.2825 42.958 70.1834 42.8029C70.0871 42.68 70.0282 42.5328 70.0134 42.3782C69.9832 42.2116 69.9832 42.041 70.0134 41.8745V41.6769C70.0134 41.6177 70.0134 41.5584 70.0834 41.4991C70.1006 41.4503 70.1241 41.4038 70.1534 41.3609L70.2234 41.272H70.2834H70.3734H70.5134H70.7134C70.8203 41.2751 70.9255 41.2986 71.0234 41.3411C71.0834 41.3411 71.1134 41.4103 71.1034 41.4498C71.1118 41.4754 71.1118 41.5031 71.1034 41.5288C71.0718 41.5538 71.0448 41.5838 71.0234 41.6177C70.9959 41.6581 70.9724 41.7011 70.9534 41.7461C70.9464 41.8051 70.9464 41.8648 70.9534 41.9238C70.9434 41.9727 70.9434 42.0231 70.9534 42.072C70.9449 42.1177 70.9449 42.1645 70.9534 42.2103C70.9875 42.258 71.0279 42.3012 71.0734 42.3387C71.1377 42.3983 71.208 42.4513 71.2834 42.4967L74.7934 41.3411C74.8595 41.3297 74.9272 41.3297 74.9934 41.3411C75.0106 41.3332 75.0294 41.3291 75.0484 41.3291C75.0674 41.3291 75.0862 41.3332 75.1034 41.3411C75.1179 41.3928 75.1179 41.4474 75.1034 41.4991C75.1108 41.5945 75.1108 41.6902 75.1034 41.7856C75.1034 41.9041 75.1034 41.993 75.1034 42.0621C75.0973 42.122 75.0767 42.1796 75.0434 42.23C75.0278 42.2678 74.9996 42.2992 74.9634 42.3189L74.8334 42.3683L73.2534 42.8522L72.7534 43.0103L72.2434 43.1387L72.7234 43.3658L73.2034 43.6127L74.6334 44.3633C74.6644 44.3809 74.6916 44.4044 74.7134 44.4325C74.7168 44.462 74.7168 44.4918 74.7134 44.5214C74.7182 44.5772 74.7182 44.6334 74.7134 44.6893C74.7134 44.7584 74.7134 44.8572 74.7134 44.9658C74.7188 45.0546 74.7188 45.1437 74.7134 45.2325C74.7026 45.285 74.6823 45.3352 74.6534 45.3806C74.6397 45.3884 74.6242 45.3925 74.6084 45.3925C74.5926 45.3925 74.5771 45.3884 74.5634 45.3806C74.4879 45.3994 74.4089 45.3994 74.3334 45.3806L71.2334 43.6127ZM70.4134 39.6621H70.3434C70.3342 39.6365 70.3342 39.6087 70.3434 39.5831C70.3357 39.534 70.3357 39.484 70.3434 39.435C70.3367 39.3561 70.3367 39.2768 70.3434 39.1979V38.951C70.3434 38.8917 70.3434 38.8424 70.3434 38.8029C70.3396 38.7733 70.3396 38.7435 70.3434 38.714H70.4134L74.4134 38.5954V37.5485C73.8234 37.4893 73.3134 37.4399 72.8834 37.3708C72.5026 37.3305 72.125 37.2645 71.7534 37.1732C71.4891 37.1162 71.2312 37.0335 70.9834 36.9263C70.8068 36.8437 70.6447 36.7336 70.5034 36.6004C70.3835 36.4814 70.2943 36.3358 70.2434 36.1757C70.1985 35.9977 70.1717 35.8157 70.1634 35.6325C70.1585 35.5997 70.1585 35.5665 70.1634 35.5337C70.1777 35.5064 70.1982 35.4827 70.2234 35.4646H70.3434H70.5334C70.6231 35.4545 70.7137 35.4545 70.8034 35.4646H70.9534C70.9493 35.4789 70.9425 35.4923 70.9334 35.5041C70.9393 35.5268 70.9393 35.5505 70.9334 35.5732C70.9378 35.649 70.9582 35.723 70.9934 35.7905C71.0361 35.8757 71.1018 35.9475 71.1834 35.9979C71.3131 36.0718 71.4506 36.1314 71.5934 36.1757C71.8166 36.2446 72.0436 36.3006 72.2734 36.3436L73.2734 36.4819C73.6734 36.5312 74.1534 36.5708 74.7134 36.6201C74.8089 36.6224 74.902 36.6497 74.9834 36.6991C75.0367 36.752 75.0687 36.8222 75.0734 36.8967L75.1434 39.2967C75.1486 39.3342 75.145 39.3725 75.1329 39.4085C75.1207 39.4444 75.1004 39.4771 75.0734 39.5041C75.0414 39.534 75.0037 39.5572 74.9625 39.5725C74.9213 39.5878 74.8774 39.5947 74.8334 39.593L70.4134 39.6621ZM70.7734 34.6547H70.6134H70.5034H70.4134H70.3234C70.2716 34.614 70.2246 34.5676 70.1834 34.5164C70.1234 34.4473 70.0634 34.3584 69.9934 34.2596C69.9234 34.1609 69.8734 34.0325 69.8134 33.8942C69.7616 33.7419 69.7182 33.587 69.6834 33.43C69.6238 33.1267 69.6238 32.8148 69.6834 32.5115C69.7302 32.2356 69.8433 31.9748 70.0134 31.751C70.1946 31.513 70.4268 31.3174 70.6934 31.1782C71.0062 31.0095 71.3435 30.8895 71.6934 30.8226C72.0686 30.7485 72.4531 30.7318 72.8334 30.7732C73.1487 30.8118 73.4521 30.9162 73.7234 31.0794C73.9799 31.2309 74.1959 31.4408 74.3534 31.6917C74.5299 31.9507 74.6491 32.2435 74.7034 32.551C74.7177 32.6823 74.7177 32.8148 74.7034 32.9461C74.7034 33.0745 74.7034 33.193 74.7034 33.3115C74.6907 33.4156 74.6673 33.5182 74.6334 33.6177C74.6131 33.6874 74.5828 33.7539 74.5434 33.8152L74.4734 33.9041C74.4468 33.9077 74.4199 33.9077 74.3934 33.9041C74.3537 33.9111 74.3131 33.9111 74.2734 33.9041H74.1034H73.9034C73.8602 33.9091 73.8166 33.9091 73.7734 33.9041C73.7477 33.914 73.7191 33.914 73.6934 33.9041C73.6881 33.8951 73.6853 33.8849 73.6853 33.8745C73.6853 33.8641 73.6881 33.8538 73.6934 33.8448C73.6739 33.7973 73.6739 33.7442 73.6934 33.6967L73.7934 33.4399C73.8444 33.3737 73.8912 33.3045 73.9334 33.2325C73.9575 33.082 73.9575 32.9287 73.9334 32.7782C73.9016 32.5984 73.8261 32.4289 73.7134 32.2843C73.602 32.1504 73.462 32.0425 73.3034 31.9683C73.1181 31.8938 72.9226 31.8472 72.7234 31.83C72.4819 31.8219 72.2402 31.8418 72.0034 31.8893C71.7532 31.9291 71.5106 32.0057 71.2834 32.1164C71.1065 32.2021 70.9472 32.3193 70.8134 32.4621C70.7067 32.5918 70.6315 32.7438 70.5934 32.9066C70.5534 33.0821 70.5534 33.2643 70.5934 33.4399C70.6174 33.5954 70.6681 33.7457 70.7434 33.8843C70.8018 33.9883 70.8687 34.0874 70.9434 34.1806C70.9957 34.25 71.0561 34.313 71.1234 34.3683C71.1622 34.4044 71.1928 34.4481 71.2134 34.4967C71.2134 34.4967 71.2134 34.5461 71.2134 34.5559C71.2134 34.5658 71.2134 34.5559 71.2134 34.6053H71.0834H70.8734M70.6834 23.0201L70.3334 22.6646C70.263 22.5208 70.172 22.3878 70.0634 22.2695C69.9908 22.2019 69.906 22.1483 69.8134 22.1115C69.7244 22.0922 69.6323 22.0922 69.5434 22.1115C69.4456 22.1305 69.3512 22.1637 69.2634 22.2103C69.1789 22.259 69.1015 22.3188 69.0334 22.388C68.9795 22.4717 68.9453 22.5662 68.9334 22.6646C68.9129 22.7623 68.9129 22.8631 68.9334 22.9609C68.9691 23.1113 69.0299 23.2548 69.1134 23.3856L69.3634 23.8498L70.6834 23.0201ZM67.6134 25.7954C67.5877 25.8054 67.5591 25.8054 67.5334 25.7954C67.5334 25.7954 67.5334 25.7954 67.4534 25.7461L67.3634 25.6275C67.3147 25.5618 67.2712 25.4925 67.2334 25.4201L67.1334 25.2127C67.1246 25.1637 67.1246 25.1136 67.1334 25.0646C67.1234 25.0324 67.1234 24.998 67.1334 24.9658C67.128 24.9498 67.128 24.9325 67.1334 24.9164L68.7534 24.0473L68.5834 23.7214C68.5304 23.6177 68.4593 23.5241 68.3734 23.4448C68.3098 23.3843 68.23 23.3432 68.1434 23.3263C68.0474 23.3099 67.9493 23.3099 67.8534 23.3263H67.4934L66.2734 23.6522C66.2443 23.6628 66.2124 23.6628 66.1834 23.6522C66.1834 23.6522 66.1234 23.6522 66.0934 23.6029C66.0519 23.5643 66.015 23.5212 65.9834 23.4745C65.9834 23.4152 65.9034 23.3362 65.8534 23.2473C65.8089 23.1672 65.7689 23.0847 65.7334 23.0004C65.7231 22.9515 65.7231 22.9011 65.7334 22.8522C65.7272 22.8229 65.7272 22.7927 65.7334 22.7633H65.8234H65.9934L66.9934 22.6251H67.3534C67.4533 22.6192 67.5535 22.6192 67.6534 22.6251C67.7438 22.6427 67.8313 22.6726 67.9134 22.714C67.9955 22.7447 68.0704 22.7917 68.1334 22.8522C68.1187 22.7044 68.1187 22.5556 68.1334 22.4078C68.1387 22.276 68.1657 22.1459 68.2134 22.0226C68.2677 21.9026 68.3421 21.7924 68.4334 21.6967C68.5373 21.591 68.6591 21.5041 68.7934 21.4399C68.9742 21.3364 69.1754 21.2724 69.3834 21.2522C69.577 21.2341 69.7723 21.2611 69.9534 21.3312C70.151 21.4159 70.3308 21.5365 70.4834 21.6868C70.7018 21.9209 70.8869 22.1834 71.0334 22.467L71.6034 23.5238C71.6323 23.5935 71.6323 23.6715 71.6034 23.7411C71.5901 23.7813 71.5679 23.8181 71.5385 23.8488C71.5092 23.8796 71.4732 23.9035 71.4334 23.9189L67.6134 25.7954ZM67.0834 17.7954L64.9334 18.6152L65.7534 19.7016L67.0834 17.7954ZM65.6134 21.7461C65.5766 21.8094 65.5292 21.8661 65.4734 21.914C65.4605 21.9311 65.4439 21.9453 65.4249 21.9555C65.406 21.9657 65.385 21.9718 65.3634 21.9732C65.313 21.9552 65.2682 21.9246 65.2334 21.8843L64.9334 21.7757L64.7534 21.5387C64.7192 21.4936 64.6923 21.4436 64.6734 21.3905C64.6663 21.3767 64.6627 21.3615 64.6627 21.3461C64.6627 21.3306 64.6663 21.3154 64.6734 21.3016C64.6679 21.2892 64.665 21.2757 64.665 21.2621C64.665 21.2485 64.6679 21.2351 64.6734 21.2226L65.2434 20.3633L64.1534 18.9115L63.1534 19.2572H63.0534H62.9634C62.9182 19.2309 62.8777 19.1976 62.8434 19.1584L62.6734 18.951L62.5534 18.714C62.5374 18.6658 62.5374 18.6139 62.5534 18.5658C62.5673 18.527 62.596 18.4951 62.6334 18.4769L62.8434 18.388L67.2334 16.9164H67.3534C67.3896 16.9084 67.4272 16.9084 67.4634 16.9164C67.5116 16.9541 67.5553 16.9972 67.5934 17.0448C67.6534 17.1041 67.7134 17.1831 67.7934 17.2819L68.0134 17.5683C68.0539 17.6233 68.0875 17.683 68.1134 17.7461C68.1271 17.7878 68.1271 17.8327 68.1134 17.8745C68.0991 17.9135 68.0789 17.9501 68.0534 17.9831L65.6134 21.7461ZM63.6134 14.5559C63.6767 14.4875 63.7305 14.4112 63.7734 14.3288C63.7929 14.2509 63.7929 14.1696 63.7734 14.0917C63.7613 14.0072 63.7306 13.9262 63.6834 13.8547C63.6168 13.749 63.5361 13.6527 63.4434 13.5683L62.9334 13.351L62.0634 14.2695L62.4734 14.6547C62.5575 14.737 62.6556 14.8039 62.7634 14.8522C62.849 14.8713 62.9378 14.8713 63.0234 14.8522C63.1038 14.8514 63.1828 14.8311 63.2534 14.793C63.3305 14.7546 63.3986 14.7008 63.4534 14.635M62.2034 16.3337C62.2704 16.2553 62.3275 16.169 62.3734 16.0769C62.3925 15.9857 62.3925 15.8916 62.3734 15.8004C62.3593 15.6948 62.3218 15.5936 62.2634 15.5041C62.1844 15.3754 62.0828 15.2617 61.9634 15.1683L61.5834 14.7633L60.5834 15.751L61.1134 16.235C61.1966 16.3208 61.2949 16.391 61.4034 16.4424C61.487 16.4865 61.5789 16.5134 61.6734 16.5214C61.7624 16.54 61.8544 16.54 61.9434 16.5214C62.0344 16.4826 62.1161 16.4254 62.1834 16.3535M62.9634 17.0349C62.8549 17.1506 62.7303 17.2503 62.5934 17.3312C62.4667 17.4005 62.3273 17.4442 62.1834 17.4596C62.0445 17.4842 61.9023 17.4842 61.7634 17.4596C61.619 17.4372 61.478 17.3974 61.3434 17.3411C61.2022 17.2811 61.0652 17.2118 60.9334 17.1337C60.7876 17.029 60.6475 16.9169 60.5134 16.7979L59.5634 15.909C59.5325 15.8852 59.5068 15.8554 59.4879 15.8214C59.469 15.7874 59.4572 15.7501 59.4534 15.7115C59.4517 15.6672 59.4597 15.623 59.477 15.5821C59.4943 15.5412 59.5203 15.5045 59.5534 15.4745L62.4934 12.3633C62.5208 12.3291 62.5558 12.3016 62.5956 12.2827C62.6355 12.2639 62.6792 12.2543 62.7234 12.2547C62.8025 12.2558 62.878 12.2878 62.9334 12.3436L63.8334 13.1732C64.0293 13.3437 64.2009 13.5398 64.3434 13.7559C64.4599 13.9117 64.5417 14.0901 64.5834 14.2794C64.6233 14.445 64.6233 14.6175 64.5834 14.7831C64.5257 14.9637 64.4225 15.1268 64.2834 15.2572C64.2066 15.3404 64.1192 15.4134 64.0234 15.4745C63.9319 15.5323 63.8301 15.5725 63.7234 15.593C63.6206 15.6077 63.5162 15.6077 63.4134 15.593C63.3036 15.5807 63.196 15.5541 63.0934 15.514C63.1723 15.6237 63.2361 15.7433 63.2834 15.8695C63.3228 15.9942 63.343 16.1241 63.3434 16.2547C63.3326 16.39 63.3023 16.523 63.2534 16.6498C63.1905 16.7923 63.1025 16.9228 62.9934 17.0349M58.9334 12.3041C59.0626 12.1072 59.1731 11.8989 59.2634 11.6819C59.3469 11.5055 59.3913 11.3136 59.3934 11.1189C59.3964 10.9425 59.3515 10.7686 59.2634 10.6152C59.1501 10.4373 58.996 10.2884 58.8134 10.1806C58.6529 10.0634 58.4641 9.98983 58.2658 9.9673C58.0674 9.94476 57.8666 9.97405 57.6834 10.0522C57.5047 10.1356 57.3423 10.2493 57.2034 10.388C57.0455 10.5442 56.9047 10.7163 56.7834 10.9016C56.649 11.1006 56.5351 11.3123 56.4434 11.5337C56.3598 11.71 56.3155 11.902 56.3134 12.0967C56.3067 12.2734 56.3518 12.4483 56.4434 12.6004C56.5594 12.776 56.713 12.9244 56.8934 13.035C57.0685 13.1551 57.2714 13.2299 57.4834 13.2522C57.6679 13.263 57.8524 13.2327 58.0234 13.1633C58.2066 13.0827 58.3728 12.9688 58.5134 12.8275C58.669 12.6658 58.8095 12.4906 58.9334 12.3041ZM59.8434 12.8275C59.6421 13.1376 59.3962 13.4171 59.1134 13.6572C58.8699 13.8569 58.5874 14.0048 58.2834 14.0917C57.9841 14.1608 57.6727 14.1608 57.3734 14.0917C57.0161 14.0239 56.6761 13.8863 56.3734 13.6868C56.0854 13.5044 55.8289 13.2776 55.6134 13.0152C55.4368 12.7893 55.3168 12.5253 55.2634 12.2448C55.221 11.9464 55.2484 11.6423 55.3434 11.3559C55.4581 11.0035 55.6268 10.6704 55.8434 10.3683C56.0351 10.0599 56.2786 9.78608 56.5634 9.55841C56.8013 9.35835 57.0815 9.21326 57.3834 9.13372C57.6821 9.05971 57.9947 9.05971 58.2934 9.13372C58.6513 9.19942 58.9918 9.33726 59.2934 9.53865C59.5801 9.71489 59.8339 9.93876 60.0434 10.2004C60.2238 10.424 60.3442 10.689 60.3934 10.9708C60.4406 11.2645 60.4201 11.565 60.3334 11.8498C60.221 12.2013 60.0558 12.5343 59.8434 12.8374M55.9334 8.11643C55.9098 8.17551 55.8796 8.23182 55.8434 8.28433C55.8245 8.32273 55.7972 8.35648 55.7634 8.3831C55.7404 8.38855 55.7164 8.38855 55.6934 8.3831C55.6708 8.39143 55.646 8.39143 55.6234 8.3831L54.1334 7.71149L52.4634 11.2868C52.4695 11.3061 52.4695 11.3268 52.4634 11.3461H52.3734H52.2234L51.9934 11.2473L51.7834 11.1387C51.7339 11.1189 51.6895 11.0885 51.6534 11.0498C51.6272 11.0286 51.6066 11.0015 51.5934 10.9708C51.5934 10.9708 51.5934 10.9708 51.5934 10.9016L53.4534 6.86211C53.4845 6.78331 53.5455 6.71956 53.6234 6.68433C53.6972 6.6552 53.7795 6.6552 53.8534 6.68433L55.9934 7.67199C55.9934 7.67199 56.0534 7.73125 56.0534 7.80038C56.0428 7.90838 56.0087 8.01284 55.9534 8.10656M50.0434 7.84977C50.1129 7.62489 50.1566 7.39296 50.1734 7.15841C50.1935 6.96606 50.1765 6.77168 50.1234 6.58557C50.0706 6.4188 49.974 6.26885 49.8434 6.151C49.6837 6.0187 49.4956 5.92412 49.2934 5.87446C49.0841 5.81623 48.8626 5.81623 48.6534 5.87446C48.4744 5.91435 48.3091 5.99943 48.1734 6.12137C48.0251 6.24874 47.9029 6.40296 47.8134 6.57569C47.7154 6.77249 47.6351 6.97739 47.5734 7.18804C47.5091 7.40461 47.4623 7.62588 47.4334 7.84977C47.3964 8.03897 47.3964 8.23341 47.4334 8.42261C47.4845 8.59293 47.5813 8.74647 47.7134 8.86705C47.8765 8.9998 48.068 9.09435 48.2734 9.14359C48.48 9.19628 48.6968 9.19628 48.9034 9.14359C49.0839 9.09987 49.2516 9.01535 49.3934 8.89668C49.5397 8.75991 49.6614 8.59961 49.7534 8.42261C49.8673 8.24069 49.9644 8.04896 50.0434 7.84977ZM51.0434 8.0868C50.9445 8.43647 50.7927 8.76943 50.5934 9.07446C50.4345 9.37127 50.2087 9.62808 49.9334 9.82507C49.6714 9.98161 49.3778 10.0794 49.0734 10.1115C48.7361 10.1372 48.3969 10.1004 48.0734 10.0029C47.7422 9.91662 47.4279 9.77642 47.1434 9.58804C46.903 9.42757 46.707 9.21028 46.5734 8.95594C46.442 8.68806 46.3736 8.39432 46.3734 8.09668C46.3774 7.71868 46.4346 7.34307 46.5434 6.98063C46.6415 6.63234 46.7897 6.29974 46.9834 5.99298C47.156 5.73342 47.3806 5.51157 47.6434 5.34112C47.904 5.18182 48.1983 5.08383 48.5034 5.0547C48.8407 5.02497 49.1807 5.06191 49.5034 5.16335C49.8302 5.24822 50.1409 5.38498 50.4234 5.56828C50.661 5.72905 50.8536 5.94647 50.9834 6.20038C51.1167 6.46446 51.1885 6.7547 51.1934 7.04977C51.1994 7.42451 51.1454 7.79785 51.0334 8.15594M44.6534 8.99544C44.6589 9.01482 44.6589 9.03533 44.6534 9.0547C44.6238 9.06182 44.5929 9.06182 44.5634 9.0547H44.4134H44.1634H43.9234H43.7734C43.7439 9.04332 43.7193 9.02244 43.7034 8.99544C43.6961 8.98537 43.6921 8.97328 43.6921 8.96088C43.6921 8.94847 43.6961 8.93638 43.7034 8.92631L44.0834 4.97569L43.0234 4.87693C42.8934 5.44977 42.7734 5.93372 42.6634 6.35841C42.5534 6.7831 42.4334 7.13865 42.3134 7.44483C42.2257 7.69618 42.1118 7.93782 41.9734 8.16582C41.8726 8.33111 41.7401 8.47538 41.5834 8.59051C41.4495 8.69388 41.2912 8.76186 41.1234 8.78804C40.9406 8.80877 40.7561 8.80877 40.5734 8.78804H40.4734L40.4134 8.72878C40.4069 8.68622 40.4069 8.64295 40.4134 8.60038C40.4083 8.53793 40.4083 8.47518 40.4134 8.41273C40.4134 8.30409 40.4134 8.2152 40.4134 8.15594C40.3992 8.10755 40.3992 8.05618 40.4134 8.00779C40.4116 7.97318 40.4215 7.93897 40.4413 7.91041C40.4612 7.88186 40.49 7.86055 40.5234 7.84977H40.6034C40.6793 7.86441 40.7574 7.86441 40.8334 7.84977C40.9198 7.80809 40.9977 7.75119 41.0634 7.68186C41.1518 7.56599 41.2256 7.43997 41.2834 7.30656C41.391 7.09914 41.4749 6.8805 41.5334 6.6547C41.6234 6.39791 41.7134 6.06211 41.8134 5.66705C41.9134 5.27199 42.0134 4.80779 42.1234 4.27446C42.141 4.17732 42.1822 4.08583 42.2434 4.00779C42.3107 3.98088 42.386 3.98088 42.4534 4.00779L44.8734 4.23495C44.9121 4.23568 44.9501 4.24493 44.9847 4.26201C45.0193 4.2791 45.0496 4.3036 45.0734 4.33372C45.0905 4.37094 45.0994 4.41135 45.0994 4.45224C45.0994 4.49312 45.0905 4.53353 45.0734 4.57075L44.6534 8.99544ZM37.2334 4.8868L36.6934 7.00038L38.0934 6.90162L37.2334 4.8868ZM39.7734 8.28433C39.7734 8.37322 39.8334 8.45223 39.8434 8.50162C39.8539 8.51963 39.8595 8.54007 39.8595 8.56088C39.8595 8.58168 39.8539 8.60212 39.8434 8.62014C39.8065 8.65735 39.7561 8.67865 39.7034 8.6794H39.4034H39.1034H38.9334H38.8534C38.8515 8.65309 38.8515 8.62669 38.8534 8.60038L38.4534 7.61273L36.5334 7.84977L36.2934 8.83742C36.299 8.87011 36.299 8.9035 36.2934 8.93619C36.2775 8.96318 36.2528 8.98406 36.2234 8.99544H36.0634H35.8034H35.5234C35.472 8.99736 35.4219 8.97968 35.3834 8.94606C35.3745 8.92754 35.3699 8.9073 35.3699 8.8868C35.3699 8.86631 35.3745 8.84606 35.3834 8.82754C35.3723 8.75553 35.3723 8.68227 35.3834 8.61026L36.5434 4.19545C36.5361 4.15959 36.5361 4.12266 36.5434 4.0868C36.5667 4.05635 36.5978 4.0325 36.6334 4.01767C36.6931 4.0099 36.7536 4.0099 36.8134 4.01767H37.1334H37.4834H37.7034C37.7455 4.02527 37.7841 4.04605 37.8134 4.07693C37.8397 4.1094 37.86 4.14617 37.8734 4.18557L39.7734 8.28433ZM34.2934 9.03495C34.3034 9.06035 34.3034 9.08856 34.2934 9.11396L34.2334 9.1831L34.0834 9.24236C34.0107 9.27686 33.9332 9.30017 33.8534 9.31149C33.7751 9.33544 33.6948 9.35198 33.6134 9.36088H33.4634C33.4308 9.37078 33.396 9.37078 33.3634 9.36088C33.3587 9.34139 33.3587 9.3211 33.3634 9.30162L32.8334 7.38557L31.0434 7.84977L31.5234 9.76581C31.5281 9.77675 31.5305 9.78851 31.5305 9.80038C31.5305 9.81226 31.5281 9.82401 31.5234 9.83495L31.4534 9.90409L31.3134 9.97322L31.0834 10.0424H30.8434C30.7904 10.0504 30.7364 10.0504 30.6834 10.0424C30.6538 10.0495 30.6229 10.0495 30.5934 10.0424C30.5889 10.0331 30.5866 10.023 30.5866 10.0127C30.5866 10.0025 30.5889 9.99236 30.5934 9.9831L29.4134 5.50903C29.4093 5.48616 29.4093 5.46276 29.4134 5.43989L29.4734 5.37075L29.6234 5.31149L29.8534 5.23248H30.0934H30.2534C30.2822 5.22095 30.3145 5.22095 30.3434 5.23248V5.29174L30.7834 7.03001L32.5734 6.58557L32.1334 4.8473C32.1287 4.83636 32.1263 4.8246 32.1263 4.81273C32.1263 4.80085 32.1287 4.7891 32.1334 4.77816C32.1473 4.7506 32.1679 4.72686 32.1934 4.70903L32.3334 4.63989L32.5734 4.57075L32.8134 4.52137H32.9634C32.9922 4.50984 33.0245 4.50984 33.0534 4.52137H33.1034L34.2934 9.03495ZM22.0334 9.5189L21.6034 9.82507C21.4582 9.9027 21.3266 10.0027 21.2134 10.1214C21.1458 10.1941 21.0977 10.2824 21.0734 10.3782C21.0486 10.4654 21.0486 10.5576 21.0734 10.6448C21.1049 10.7372 21.1451 10.8265 21.1934 10.9115C21.2466 10.995 21.3143 11.0685 21.3934 11.1288C21.4678 11.1823 21.5531 11.2194 21.6434 11.2374C21.7424 11.2568 21.8443 11.2568 21.9434 11.2374C22.091 11.1888 22.2321 11.1225 22.3634 11.0399L22.8134 10.7535L22.0334 9.5189ZM25.0334 12.3633C25.0381 12.3743 25.0405 12.386 25.0405 12.3979C25.0405 12.4098 25.0381 12.4215 25.0334 12.4325C25.0425 12.458 25.0425 12.4859 25.0334 12.5115L24.9234 12.6201L24.7234 12.7584L24.5134 12.8769L24.3634 12.9362H24.2634C24.258 12.9201 24.258 12.9028 24.2634 12.8868L23.2634 11.3461L22.9534 11.5436C22.8496 11.6017 22.758 11.6788 22.6834 11.7708C22.6309 11.838 22.5934 11.9154 22.5734 11.9979C22.5582 12.0928 22.5582 12.1894 22.5734 12.2843C22.5852 12.4041 22.6053 12.5228 22.6334 12.6399L22.8934 13.7263V13.8251C22.8788 13.8609 22.8585 13.8943 22.8334 13.9238L22.7134 14.0325L22.4934 14.1708C22.4172 14.2231 22.337 14.2693 22.2534 14.309L22.1034 14.3683H21.9334H21.8834V14.2794C21.8626 14.2247 21.8459 14.1686 21.8334 14.1115L21.6334 13.1238C21.604 13.0074 21.5873 12.8882 21.5834 12.7683C21.5733 12.6665 21.5733 12.5639 21.5834 12.4621C21.6008 12.3751 21.6242 12.2893 21.6534 12.2053C21.6863 12.1243 21.7301 12.0479 21.7834 11.9782C21.6404 12.0218 21.4927 12.0483 21.3434 12.0572C21.2112 12.082 21.0755 12.082 20.9434 12.0572C20.8179 12.0143 20.7023 11.9471 20.6034 11.8596C20.4869 11.766 20.3887 11.6522 20.3134 11.5238C20.1987 11.3536 20.1204 11.162 20.0834 10.9609C20.0496 10.7689 20.0668 10.5715 20.1334 10.388C20.2051 10.186 20.3135 9.99853 20.4534 9.83495C20.6766 9.6064 20.9286 9.40723 21.2034 9.24236L22.2034 8.61026C22.2715 8.58768 22.3452 8.58768 22.4134 8.61026C22.457 8.61899 22.498 8.63788 22.5327 8.66536C22.5675 8.69285 22.5952 8.72813 22.6134 8.76828L25.0334 12.3633ZM17.0334 13.4103L17.9134 15.3856L18.9334 14.5066L17.0334 13.4103ZM21.1334 14.5954C21.2022 14.6297 21.2661 14.6729 21.3234 14.7238C21.3412 14.7361 21.356 14.7523 21.3664 14.7712C21.3768 14.79 21.3826 14.811 21.3834 14.8325C21.3698 14.882 21.342 14.9266 21.3034 14.9609C21.3034 15.0201 21.1834 15.0794 21.0934 15.1683C21.0181 15.2365 20.9379 15.2992 20.8534 15.3559L20.7234 15.4547C20.6906 15.4631 20.6562 15.4631 20.6234 15.4547H20.5434L19.6334 14.9411L18.2534 16.1559L18.6634 17.0745C18.6672 17.1073 18.6672 17.1404 18.6634 17.1732C18.6704 17.187 18.6741 17.2022 18.6741 17.2177C18.6741 17.2331 18.6704 17.2483 18.6634 17.2621C18.6374 17.3101 18.6036 17.3534 18.5634 17.3905C18.5634 17.4399 18.4534 17.4991 18.3734 17.5782L18.1634 17.7461C18.1232 17.7767 18.0742 17.794 18.0234 17.7954C17.9853 17.785 17.953 17.7602 17.9334 17.7263C17.892 17.6647 17.8585 17.5984 17.8334 17.5288L16.0534 13.2917C16.0341 13.2587 16.0239 13.2212 16.0239 13.1831C16.0239 13.145 16.0341 13.1075 16.0534 13.0745L16.1734 12.9263L16.4034 12.7189L16.6734 12.4917C16.7267 12.4431 16.7874 12.4031 16.8534 12.3732C16.893 12.3652 16.9338 12.3652 16.9734 12.3732L17.0934 12.4226L21.1334 14.5954ZM17.2434 18.4868C17.2478 18.4961 17.2501 18.5062 17.2501 18.5164C17.2501 18.5267 17.2478 18.5368 17.2434 18.5461C17.2528 18.5783 17.2528 18.6126 17.2434 18.6448L17.1734 18.7732C17.1322 18.8427 17.0854 18.9088 17.0334 18.9708L16.8634 19.1485C16.8323 19.187 16.7951 19.2203 16.7534 19.2473C16.7243 19.2579 16.6924 19.2579 16.6634 19.2473C16.6525 19.2525 16.6405 19.2553 16.6284 19.2553C16.6163 19.2553 16.6043 19.2525 16.5934 19.2473L15.0134 18.0226L13.8634 19.4547L15.4234 20.6893C15.4278 20.6985 15.4301 20.7087 15.4301 20.7189C15.4301 20.7292 15.4278 20.7393 15.4234 20.7485C15.4234 20.7485 15.4234 20.7979 15.4234 20.8374C15.4062 20.8863 15.3826 20.9328 15.3534 20.9757C15.3122 21.0452 15.2654 21.1112 15.2134 21.1732C15.1617 21.2369 15.1048 21.2964 15.0434 21.351C15.0114 21.3924 14.9704 21.4262 14.9234 21.4498C14.8975 21.4588 14.8693 21.4588 14.8434 21.4498C14.8323 21.4544 14.8204 21.4568 14.8084 21.4568C14.7964 21.4568 14.7845 21.4544 14.7734 21.4498L11.1534 18.5856C11.1317 18.5705 11.1145 18.5501 11.1034 18.5263C11.0949 18.4939 11.0949 18.4599 11.1034 18.4275C11.1034 18.4275 11.1034 18.3485 11.1734 18.2893L11.3134 18.1016L11.4734 17.914C11.5136 17.8772 11.5571 17.8442 11.6034 17.8152H11.6834H11.7534L13.1734 18.9411L14.3234 17.509L12.9334 16.3831C12.9334 16.3831 12.9334 16.3831 12.9334 16.3238C12.9239 16.2916 12.9239 16.2573 12.9334 16.2251C12.953 16.1804 12.9764 16.1375 13.0034 16.0967C13.046 16.0256 13.0963 15.9594 13.1534 15.8991L13.3134 15.7115L13.4234 15.6127H13.5234H13.5934L17.2434 18.4868ZM12.4434 22.5658C12.3433 22.5108 12.2354 22.4708 12.1234 22.4473C12.0283 22.4226 11.9284 22.4226 11.8334 22.4473C11.7269 22.4783 11.6304 22.5362 11.5534 22.6152C11.4317 22.7369 11.3304 22.8769 11.2534 23.03L10.9334 23.5633L12.3134 24.3238L12.6034 23.8004C12.698 23.6482 12.7656 23.4812 12.8034 23.3066C12.8301 23.1995 12.8301 23.0877 12.8034 22.9806C12.7755 22.8871 12.7239 22.8021 12.6534 22.7337C12.5955 22.6644 12.524 22.6073 12.4434 22.5658ZM12.8734 21.6275C13.0617 21.7384 13.2333 21.8747 13.3834 22.0325C13.5203 22.1896 13.6195 22.3753 13.6734 22.5757C13.7237 22.8068 13.7237 23.0458 13.6734 23.2769C13.5965 23.6243 13.4649 23.9575 13.2834 24.2646L12.6834 25.3312L12.6034 25.43C12.5743 25.4406 12.5424 25.4406 12.5134 25.43C12.474 25.4396 12.4328 25.4396 12.3934 25.43C12.3471 25.4388 12.2996 25.4388 12.2534 25.43L8.32338 23.2572V23.1683C8.33614 23.1132 8.35632 23.06 8.38338 23.0103C8.41429 22.9383 8.45108 22.8689 8.49338 22.8029C8.5284 22.731 8.5685 22.6617 8.61338 22.5954L8.71338 22.4769C8.73926 22.4679 8.7675 22.4679 8.79338 22.4769C8.8191 22.467 8.84766 22.467 8.87338 22.4769L10.3334 23.2868L10.6734 22.6843C10.8143 22.4228 10.9891 22.1804 11.1934 21.9633C11.3426 21.8116 11.5235 21.6937 11.7234 21.6177C11.9079 21.5474 12.1065 21.5204 12.3034 21.5387C12.5212 21.5567 12.7327 21.6207 12.9234 21.7263M11.7834 26.8226C11.7834 26.8226 11.7834 26.8226 11.8434 26.8226C11.9034 26.8226 11.8434 26.872 11.8434 26.9115C11.8465 26.9641 11.8465 27.0169 11.8434 27.0695C11.8211 27.1467 11.7943 27.2225 11.7634 27.2967C11.7385 27.3743 11.7085 27.4502 11.6734 27.5238C11.6543 27.5688 11.6309 27.6118 11.6034 27.6522C11.5819 27.6781 11.5545 27.6984 11.5234 27.7115C11.5125 27.7167 11.5005 27.7195 11.4884 27.7195C11.4763 27.7195 11.4643 27.7167 11.4534 27.7115L7.68338 26.4177L7.33338 27.4053C7.86338 27.672 8.33338 27.909 8.69338 28.1164C9.05338 28.3238 9.40338 28.5312 9.69338 28.709C9.91609 28.8644 10.1267 29.0361 10.3234 29.2226C10.4603 29.3585 10.569 29.5196 10.6434 29.6967C10.7125 29.8518 10.74 30.0218 10.7234 30.1905C10.7086 30.3729 10.6682 30.5524 10.6034 30.7238C10.589 30.7515 10.5723 30.7779 10.5534 30.8029C10.5452 30.8169 10.5336 30.8288 10.5196 30.8374C10.5057 30.8461 10.4898 30.8511 10.4734 30.8522C10.434 30.8623 10.3927 30.8623 10.3534 30.8522L10.1634 30.793L9.93338 30.6942C9.8814 30.6784 9.8336 30.6514 9.79338 30.6152C9.77561 30.6141 9.75831 30.6091 9.74274 30.6005C9.72718 30.592 9.71373 30.5801 9.70338 30.5658C9.69852 30.543 9.69852 30.5195 9.70338 30.4967C9.71796 30.4216 9.71796 30.3446 9.70338 30.2695C9.69139 30.1755 9.65332 30.0867 9.59338 30.0127C9.50362 29.8952 9.3995 29.789 9.28338 29.6967C9.10317 29.5517 8.91268 29.4197 8.71338 29.3016C8.47338 29.1568 8.17338 28.9889 7.81338 28.7979C7.45338 28.6004 7.02338 28.393 6.53338 28.1461C6.44179 28.1134 6.36186 28.0551 6.30338 27.9782C6.28852 27.9438 6.28087 27.9069 6.28087 27.8695C6.28087 27.8322 6.28852 27.7952 6.30338 27.7609L7.12338 25.4991C7.13515 25.4624 7.15457 25.4284 7.1804 25.3995C7.20624 25.3706 7.23791 25.3474 7.27338 25.3312C7.31107 25.3143 7.35198 25.3056 7.39338 25.3056C7.43478 25.3056 7.47569 25.3143 7.51338 25.3312L11.7834 26.8226ZM5.99338 32.9658L7.93338 34.0127L8.17338 32.6498L5.99338 32.9658ZM9.99338 31.3757C10.0698 31.3678 10.1469 31.3678 10.2234 31.3757C10.2234 31.3757 10.3134 31.3757 10.3334 31.4251C10.3534 31.4745 10.3334 31.5041 10.3334 31.5732C10.3334 31.6424 10.3334 31.7411 10.3334 31.8596C10.3334 31.9782 10.2834 32.0868 10.2734 32.1559C10.2634 32.2251 10.2734 32.2843 10.2734 32.3238L10.2134 32.3831C10.1842 32.3929 10.1526 32.3929 10.1234 32.3831L9.12338 32.5312L8.80338 34.3485L9.70338 34.8127H9.78338C9.79059 34.8419 9.79059 34.8724 9.78338 34.9016C9.79339 34.9538 9.79339 35.0074 9.78338 35.0596C9.79085 35.1451 9.79085 35.231 9.78338 35.3164C9.76993 35.4066 9.74988 35.4958 9.72338 35.5831C9.72156 35.6082 9.71439 35.6326 9.70232 35.6547C9.69026 35.6768 9.67357 35.6962 9.65338 35.7115C9.61139 35.7266 9.56536 35.7266 9.52338 35.7115L9.32338 35.6127L5.12338 33.4596L5.02338 33.3905C5.01448 33.3548 5.01448 33.3175 5.02338 33.2819C5.01433 33.2229 5.01433 33.163 5.02338 33.1041C5.02338 33.0251 5.02338 32.9263 5.02338 32.7979C5.02338 32.6695 5.02338 32.5312 5.09338 32.4424C5.10919 32.3753 5.12923 32.3094 5.15338 32.2448C5.1748 32.211 5.20185 32.1809 5.23338 32.1559C5.27595 32.1446 5.3208 32.1446 5.36338 32.1559L9.99338 31.3757ZM6.15338 37.0646C6.00537 37.0504 5.85633 37.0778 5.72338 37.1436C5.624 37.1913 5.53812 37.2626 5.47338 37.351C5.41385 37.4363 5.37611 37.5346 5.36338 37.6374C5.35256 37.7359 5.35256 37.8352 5.36338 37.9337V38.3584H7.03338V37.914C7.01975 37.7877 6.986 37.6644 6.93338 37.5485C6.89969 37.4501 6.84119 37.3617 6.76338 37.2917C6.68413 37.2155 6.58839 37.1581 6.48338 37.1238C6.37123 37.0836 6.25269 37.0636 6.13338 37.0646M6.13338 36.0177C6.38381 36.0228 6.63119 36.073 6.86338 36.1658C7.06737 36.2573 7.24835 36.3922 7.39338 36.5609C7.54491 36.7389 7.65425 36.9481 7.71338 37.1732C7.78718 37.4468 7.81754 37.73 7.80338 38.0127V38.467H9.38338C9.40279 38.4603 9.42397 38.4603 9.44338 38.467C9.45259 38.496 9.45259 38.527 9.44338 38.5559C9.44713 38.6053 9.44713 38.6548 9.44338 38.7041C9.44846 38.783 9.44846 38.8622 9.44338 38.9411C9.44955 39.0233 9.44955 39.1058 9.44338 39.188C9.44999 39.2372 9.44999 39.287 9.44338 39.3362C9.44827 39.3623 9.44827 39.3891 9.44338 39.4152H9.37338L4.92338 39.2967C4.8755 39.2987 4.82772 39.2909 4.783 39.2739C4.73828 39.257 4.69756 39.2311 4.66338 39.1979C4.60346 39.1295 4.57139 39.0415 4.57338 38.951V37.7954V37.4695C4.58665 37.3435 4.60668 37.2182 4.63338 37.0942C4.67567 36.9428 4.7361 36.7969 4.81338 36.6596C4.89146 36.5161 4.9967 36.3887 5.12338 36.2843C5.24752 36.1753 5.39427 36.0944 5.55338 36.0473C5.73225 35.9975 5.91759 35.9742 6.10338 35.9782M9.10338 40.7288H9.29338H9.41338C9.43639 40.7233 9.46037 40.7233 9.48338 40.7288C9.48805 40.7397 9.49046 40.7515 9.49046 40.7633C9.49046 40.7752 9.48805 40.787 9.48338 40.7979L9.77338 43.2275C9.78016 43.3047 9.75889 43.3817 9.71338 43.4448C9.68855 43.4801 9.65574 43.5092 9.61755 43.5297C9.57937 43.5503 9.53685 43.5618 9.49338 43.5633L5.20338 44.0473C5.16008 44.0597 5.11427 44.0607 5.07044 44.0503C5.02662 44.0399 4.98627 44.0185 4.95338 43.988C4.89916 43.9387 4.86384 43.8724 4.85338 43.8004L4.62338 41.43C4.6187 41.4105 4.6187 41.3902 4.62338 41.3708C4.63861 41.3493 4.65931 41.3323 4.68338 41.3214C4.72304 41.3141 4.76371 41.3141 4.80338 41.3214H4.99338H5.17338H5.29338C5.31609 41.3138 5.34067 41.3138 5.36338 41.3214C5.37024 41.3405 5.37024 41.3615 5.36338 41.3806L5.57338 43.109L6.76338 42.9708L6.63338 41.4893C6.62576 41.4668 6.62576 41.4426 6.63338 41.4201L6.69338 41.3708C6.72951 41.362 6.76725 41.362 6.80338 41.3708H6.98338H7.28338H7.35338V41.43L7.52338 42.8917L8.93338 42.714L8.73338 40.9658C8.72852 40.943 8.72852 40.9195 8.73338 40.8967C8.74861 40.8753 8.76931 40.8582 8.79338 40.8473C8.83304 40.8401 8.87371 40.8401 8.91338 40.8473H9.09338M6.44338 47.3559L6.76338 48.4522L7.76338 48.3041L8.54338 48.2251H9.13338H9.57338L9.93338 48.2448L10.1934 48.3337L9.63338 46.4275L6.44338 47.3559ZM11.1034 44.393H11.1634C11.1863 44.3867 11.2105 44.3867 11.2334 44.393C11.2594 44.4292 11.2796 44.4692 11.2934 44.5115L11.3634 44.709C11.3634 44.7979 11.3634 44.8572 11.4134 44.9164C11.4177 44.9624 11.4177 45.0087 11.4134 45.0547C11.4191 45.0807 11.4191 45.1077 11.4134 45.1337H11.3534L10.2334 45.4498L11.1334 48.5708L12.2434 48.3436H12.3134C12.3413 48.3574 12.3653 48.3777 12.3834 48.4029L12.4434 48.5214L12.5134 48.7189C12.5134 48.8078 12.5134 48.8769 12.5634 48.9362C12.5677 48.9789 12.5677 49.0219 12.5634 49.0646C12.5706 49.0904 12.5706 49.1177 12.5634 49.1436H12.5034L10.7934 49.6275C10.7694 49.6425 10.7417 49.6504 10.7134 49.6504C10.6851 49.6504 10.6573 49.6425 10.6334 49.6275C10.611 49.6149 10.5915 49.5978 10.576 49.5774C10.5606 49.557 10.5495 49.5338 10.5434 49.509L10.4734 49.3312C10.3734 49.2912 10.2695 49.2615 10.1634 49.2424C10.0476 49.2014 9.92624 49.1781 9.80338 49.1732H9.33338H8.67338C8.42338 49.1732 8.12338 49.2325 7.77338 49.2819C7.42338 49.3312 7.02338 49.3905 6.56338 49.4695C6.47823 49.4922 6.38853 49.4922 6.30338 49.4695C6.26846 49.4556 6.23797 49.4327 6.2151 49.4032C6.19223 49.3736 6.17782 49.3385 6.17338 49.3016L5.47338 46.9016C5.45584 46.868 5.44669 46.8308 5.44669 46.793C5.44669 46.7552 5.45584 46.7179 5.47338 46.6843C5.52041 46.6154 5.59168 46.5661 5.67338 46.5461L9.34338 45.5584L9.22338 45.1633C9.21025 45.139 9.20338 45.1119 9.20338 45.0843C9.20338 45.0568 9.21025 45.0296 9.22338 45.0053C9.22338 45.0053 9.29338 44.9461 9.35338 44.9263L11.1034 44.393ZM11.3534 50.3189L11.5234 50.2498H11.6434H11.7234H11.7734L12.8334 52.472C12.8578 52.5424 12.8578 52.6188 12.8334 52.6893C12.8205 52.7312 12.7973 52.7694 12.7659 52.8004C12.7345 52.8314 12.6959 52.8543 12.6534 52.8671L8.75338 54.6843C8.71263 54.7029 8.66827 54.7126 8.62338 54.7126C8.57849 54.7126 8.53413 54.7029 8.49338 54.6843C8.4238 54.6506 8.36753 54.595 8.33338 54.5263L7.33338 52.314C7.3287 52.2945 7.3287 52.2742 7.33338 52.2547C7.3301 52.2318 7.3301 52.2085 7.33338 52.1856L7.43338 52.1066L7.60338 52.0177L7.77338 51.9485H7.89338H7.93338L8.69338 53.5189L9.78338 53.0152L9.14338 51.6819C9.13786 51.6591 9.13786 51.6355 9.14338 51.6127V51.5436L9.24338 51.4646L9.40338 51.3856L9.57338 51.3164H9.68338H9.76338C9.76689 51.3327 9.76689 51.3495 9.76338 51.3658L10.3934 52.709L11.6534 52.1164L10.8934 50.5263C10.8887 50.5154 10.8863 50.5036 10.8863 50.4917C10.8863 50.4799 10.8887 50.4681 10.8934 50.4572C10.8934 50.4572 10.8934 50.4572 10.8934 50.388L10.9934 50.309L11.3534 50.3189ZM12.1434 58.4078C12.2553 58.5332 12.387 58.6399 12.5334 58.7238C12.651 58.7971 12.7848 58.8412 12.9234 58.8522C13.0455 58.8764 13.1713 58.8764 13.2934 58.8522C13.4186 58.811 13.5366 58.751 13.6434 58.6745C13.7701 58.5879 13.8844 58.4849 13.9834 58.3683C14.0701 58.2725 14.1319 58.1572 14.1634 58.0325C14.1934 57.9025 14.1934 57.7674 14.1634 57.6374C14.1314 57.4704 14.0705 57.31 13.9834 57.1633L12.1434 58.4078ZM11.9334 56.0967C11.8105 56.1766 11.6994 56.273 11.6034 56.3831C11.5166 56.4789 11.4548 56.5942 11.4234 56.7189C11.393 56.8489 11.393 56.984 11.4234 57.114C11.4554 57.281 11.5163 57.4414 11.6034 57.588L13.4634 56.314C13.3542 56.1831 13.2221 56.0727 13.0734 55.988C12.9568 55.925 12.8286 55.8855 12.6964 55.872C12.5642 55.8584 12.4306 55.871 12.3034 55.909C12.1747 55.9538 12.0534 56.017 11.9434 56.0967M11.3134 55.2572C11.5226 55.106 11.7607 54.9985 12.0134 54.9411C12.244 54.8917 12.4827 54.8917 12.7134 54.9411C12.961 54.9937 13.1955 55.0944 13.4034 55.2374C13.6552 55.4089 13.8808 55.6151 14.0734 55.8498L14.5334 55.5238C14.5591 55.5139 14.5877 55.5139 14.6134 55.5238C14.6393 55.5148 14.6675 55.5148 14.6934 55.5238L14.8034 55.6226L14.9434 55.8201C14.9934 55.8991 15.0434 55.9584 15.0734 56.0177C15.0978 56.0583 15.1179 56.1013 15.1334 56.1461C15.1418 56.1785 15.1418 56.2124 15.1334 56.2448C15.1233 56.2692 15.1058 56.2899 15.0834 56.3041L14.6134 56.63C14.7795 56.878 14.9107 57.1471 15.0034 57.43C15.0795 57.6624 15.1034 57.9085 15.0734 58.151C15.0426 58.3815 14.9569 58.6015 14.8234 58.793C14.6636 59.0116 14.4675 59.2019 14.2434 59.3559C14.0391 59.4986 13.8078 59.5994 13.5634 59.6522C13.3361 59.7018 13.1006 59.7018 12.8734 59.6522C12.6263 59.6031 12.3917 59.5058 12.1834 59.3658C11.9297 59.1966 11.7038 58.9901 11.5134 58.7535L11.0634 59.0596H10.9934C10.9669 59.0639 10.9399 59.0639 10.9134 59.0596C10.8754 59.0279 10.8418 58.9914 10.8134 58.951C10.7559 58.8947 10.7055 58.8317 10.6634 58.7633L10.5334 58.5658C10.5067 58.5228 10.4865 58.4762 10.4734 58.4275C10.4663 58.4138 10.4627 58.3985 10.4627 58.3831C10.4627 58.3677 10.4663 58.3524 10.4734 58.3387L10.9334 58.0127C10.7844 57.768 10.6669 57.5059 10.5834 57.2325C10.5072 57 10.4833 56.754 10.5134 56.5115C10.5359 56.2806 10.6186 56.0595 10.7534 55.8695C10.903 55.6351 11.0925 55.428 11.3134 55.2572Z" fill="white"/>
<path d="M55.6034 62.1116L55.4534 61.9338C55.1559 61.649 54.7976 61.4337 54.4047 61.3038C54.0119 61.1739 53.5945 61.1327 53.1834 61.1832C52.5892 61.192 51.9983 61.2716 51.4234 61.4202C50.8534 61.5585 50.1434 61.7856 49.2934 62.0721C49.2039 61.8842 49.0859 61.711 48.9434 61.5585C48.505 61.1797 47.991 60.896 47.4346 60.7259C46.8782 60.5558 46.2918 60.5029 45.7134 60.5708C42.9636 60.7158 40.2586 61.3203 37.7134 62.3585C35.9564 63.0761 34.0835 63.4775 32.1834 63.5437C30.299 63.5007 28.4707 62.9023 26.9334 61.8251L26.2434 61.4202L25.3734 60.9066L25.2134 61.8943L23.4134 72.3239L24.0634 72.6004L24.3734 70.793L25.8434 62.0029L26.5334 62.4079C27.703 63.1722 29.0098 63.7086 30.3834 63.9881C30.984 64.095 31.5931 64.1479 32.2034 64.1461C34.1828 64.0787 36.1338 63.6606 37.9634 62.9116C40.4335 61.9094 43.0568 61.3251 45.7234 61.1832C46.1626 61.1754 46.6016 61.2118 47.0334 61.2918C47.5701 61.3573 48.0696 61.597 48.4534 61.9733C48.6861 62.2254 48.8207 62.5509 48.8334 62.8918C49.8834 62.5461 50.8334 62.2103 51.5934 62.0424C52.1132 61.91 52.6467 61.8371 53.1834 61.8251H53.6534L53.9534 61.8745C54.1777 61.9157 54.3938 61.9924 54.5934 62.1017C54.8034 62.2103 55.2234 61.8251 55.2234 61.8251L53.3934 73.677L54.0034 73.4202C54.0534 73.1338 54.0934 72.8375 54.1434 72.5214C54.3434 71.3066 54.5034 70.4276 54.5034 70.4177V70.1906V69.914C54.6434 69.0745 54.7734 68.2449 54.9034 67.4646C55.2734 65.1338 55.5934 63.2375 55.6334 62.9609V62.7338V62.4276L55.6034 62.1116Z" fill="#0066B3"/>
<path d="M39.9334 65.7856C32.7153 65.723 25.8087 62.873 20.6909 57.8453C15.5732 52.8177 12.6508 46.0116 12.5488 38.8831C12.4469 31.7545 15.1736 24.8697 20.1456 19.7013C25.1175 14.5329 31.94 11.4915 39.1534 11.2276H39.9634C47.2276 11.2178 54.2034 14.0348 59.3796 19.0686C64.5559 24.1023 67.5158 30.9475 67.6184 38.1214C67.721 45.2952 64.9579 52.2202 59.9277 57.3963C54.8974 62.5724 48.005 65.5829 40.7434 65.7757H39.9334M39.9334 66.4473H40.7634C48.2083 66.2523 55.2755 63.1676 60.4335 57.8618C65.5916 52.556 68.425 45.4564 68.3198 38.1016C68.2145 30.7468 65.1791 23.7291 59.8713 18.5694C54.5635 13.4096 47.4109 10.5234 39.9634 10.5362H39.1334C31.6251 10.641 24.4665 13.6873 19.2323 19.005C13.9982 24.3227 11.1173 31.4762 11.2234 38.8918C11.3295 46.3074 14.4139 53.3776 19.798 58.5471C25.1822 63.7167 32.4251 66.562 39.9334 66.4572" fill="white"/>
<path d="M45.7234 61.1831C46.2051 61.125 46.6937 61.1641 47.1595 61.2983C47.6254 61.4324 48.0588 61.6587 48.4334 61.9633C48.6705 62.2206 48.8055 62.5538 48.8134 62.9016C49.8734 62.5461 50.8134 62.2102 51.5934 62.0423C52.1132 61.9099 52.6467 61.837 53.1834 61.8251C54.4034 61.8251 54.6934 62.072 54.7834 62.1609L55.2234 61.8448L52.7634 77.2917L52.1034 76.9263C51.7421 76.7421 51.3398 76.6505 50.9334 76.6596C49.3233 76.8387 47.755 77.2827 46.2934 77.9732C45.2185 78.4738 44.092 78.8579 42.9334 79.1189C42.6223 79.1669 42.3082 79.1932 41.9934 79.1979C40.5434 79.1979 40.3134 78.4275 40.2834 78.0423L40.3734 77.2423L39.2134 77.6769C38.4434 77.9732 37.7134 78.2498 37.0734 78.467C35.7827 78.8839 34.4312 79.0874 33.0734 79.0695C29.75 79.1217 26.4833 78.2156 23.6734 76.4621L23.4134 76.2744L25.8034 62.0028L26.4934 62.4078C28.1821 63.5448 30.1796 64.1508 32.2234 64.1461C34.2028 64.0787 36.1538 63.6605 37.9834 62.9115C40.4475 61.9123 43.0637 61.3281 45.7234 61.1831Z" fill="white"/>
<path d="M41.6134 72.1362L40.8234 77.7461C40.6134 78.7338 41.8234 78.7338 42.8234 78.6054C45.4134 78.2202 49.9434 75.1585 52.3234 76.472C52.6734 73.677 53.3234 70.1017 53.3234 70.1017C53.3234 70.1017 52.7334 69.2918 50.5034 69.8251C48.2734 70.3584 43.2934 72.472 41.6234 72.1362" fill="#ED1C24"/>
<path d="M53.0634 71.7115C53.3134 70.151 53.5734 68.4819 53.8134 67.0004C53.3608 66.7769 52.8675 66.6451 52.3626 66.6129C51.8577 66.5807 51.3513 66.6486 50.8734 66.8128C48.7034 67.3362 43.9534 69.3313 42.1634 69.1436L41.5034 73.3214C41.7034 74.0029 42.5034 74.1708 43.5634 74.0819C46.1534 73.8745 50.6734 70.4868 53.0634 71.7115Z" fill="#0066B3"/>
<path d="M40.7634 78.1115C40.9234 77.0449 42.4134 77.0054 43.3934 77.0547C44.3734 77.1041 46.1934 77.0547 46.3434 76.2942C46.5234 75.2473 46.6034 73.9634 46.6034 73.9634L41.4234 74.0226L40.7634 78.1115Z" fill="#BE1E2D"/>
<path d="M24.0134 76.0473L25.2134 68.956C27.3034 70.1806 30.5834 71.9189 37.2834 69.3806C42.6534 67.3461 47.6434 66.9806 47.4034 69.0843L46.3034 76.3436C46.7034 73.8547 40.3034 76.8276 36.9134 77.993C33.2634 79.2473 27.2334 78.3387 24.0134 76.0177" fill="#ED1C24"/>
<path d="M37.5234 67.9091C31.0434 70.3585 27.6434 68.1758 25.5234 66.9215L24.7434 71.5141C26.6187 72.7236 28.7633 73.4651 30.993 73.675C33.2226 73.8849 35.4705 73.5568 37.5434 72.719C40.5434 71.5733 46.4134 69.5783 47.0634 71.3659C47.2934 69.8647 47.5234 68.2746 47.7234 66.8918C46.8934 65.5387 42.2634 66.1017 37.5034 67.8795" fill="#0066B3"/>
<path d="M52.6234 42.9708C52.6234 42.9115 52.5034 42.6844 52.3634 42.3782C52.4792 42.4453 52.5995 42.5047 52.7234 42.556L52.9434 42.9411C52.8379 42.9536 52.734 42.9768 52.6334 43.0103M50.0734 43.0103C50.0734 42.4868 49.9434 42.151 49.7834 41.035C50.0562 41.7419 50.2866 42.4642 50.4734 43.1979C50.3439 43.1416 50.2102 43.0953 50.0734 43.0597M48.9334 49.43C48.9334 49.43 48.9334 49.43 48.9334 49.509ZM48.9334 50.2103C48.9374 50.1709 48.9374 50.1312 48.9334 50.0918C48.9278 50.1244 48.9278 50.1578 48.9334 50.1905M52.5134 53.7164L51.9334 54.9708L51.2634 54.6547L51.7134 53.6671C51.9955 53.7033 52.2812 53.7033 52.5634 53.6671M53.1834 53.4893L53.0234 53.8251L52.6534 53.6572C52.8361 53.6221 53.014 53.5657 53.1834 53.4893ZM32.9334 56.7485C32.9658 56.6255 33.0356 56.5152 33.1334 56.4325C33.1209 56.5044 33.1209 56.5779 33.1334 56.6498L32.9334 56.7485ZM30.9734 50.1313C30.979 50.0986 30.979 50.0652 30.9734 50.0325C30.9787 50.0718 30.9787 50.1117 30.9734 50.151M28.2434 45.2819L27.4834 44.9362C27.443 44.7556 27.363 44.5859 27.2489 44.4391C27.1349 44.2923 26.9896 44.1721 26.8234 44.0868C26.886 43.966 26.9118 43.8298 26.8976 43.6949C26.8834 43.5599 26.8298 43.4318 26.7434 43.3263C27.1434 42.8226 27.8234 41.351 28.5834 40.1658C28.4134 41.4399 26.2134 43.1288 27.9534 44.3634C29.0934 44.1955 29.7034 42.8523 30.1534 41.0053C30.3734 41.4399 29.0034 43.3461 30.8634 43.9683C31.6834 43.8202 32.2834 42.2498 32.0734 41.0745C32.1648 41.134 32.2517 41.2 32.3334 41.272C32.5834 41.0053 33.0834 41.0053 33.2634 40.6597L33.4334 40.7683C33.9934 41.6868 34.0334 43.4251 33.2634 44.0572C33.492 44.0687 33.7205 44.0317 33.9334 43.9486C33.9334 43.9486 33.9334 43.9486 33.8334 44.1066L33.7634 44.2152C33.3334 44.6202 33.2134 44.7288 31.9634 44.551C31.9792 44.6869 32.0235 44.8181 32.0934 44.9362C31.4734 45.193 30.4634 45.1535 30.1834 46.8325C30.1681 46.8111 30.1474 46.7941 30.1234 46.7831H30.0734C30.0734 46.7831 29.9934 46.7831 29.9834 46.714C29.9734 46.6448 29.9834 46.635 29.9134 46.6152H29.6634L29.4734 46.7436C29.3134 46.8127 29.3334 46.6547 29.0534 47.0498C29.0534 47.0498 29.0534 47.0498 29.0534 47.2078H28.9834L28.7234 47.0794C28.6428 47.0562 28.5655 47.023 28.4934 46.9806L28.1834 46.8918L28.3334 46.9609L28.6834 47.1189L28.8934 47.2078L28.9334 47.356L28.0934 46.9708H28.0434C27.981 46.9325 27.9137 46.9026 27.8434 46.8819L27.5334 46.793L28.2434 45.2819ZM54.7234 41.7362C54.7035 41.7905 54.7035 41.8499 54.7234 41.9041L54.6334 41.7757C54.6515 41.6774 54.6889 41.5834 54.7434 41.4992L54.8034 41.5683C54.7629 41.6168 54.7354 41.6745 54.7234 41.7362ZM52.0734 41.7362L52.3334 41.835L52.4934 42.1313H52.2634L52.0734 41.7165M46.6434 44.5905C46.359 44.4607 46.1292 44.2372 45.9934 43.9584C46.2063 44.0416 46.4347 44.0786 46.6634 44.0671C45.8934 43.435 45.9334 41.6967 46.4934 40.7782L46.6634 40.6695C46.8434 41.0152 47.3434 41.0152 47.5934 41.2819C47.6751 41.2099 47.762 41.1439 47.8534 41.0844C47.8612 41.7843 47.908 42.4833 47.9934 43.1782C47.3997 43.4912 46.9256 43.9871 46.6434 44.5905ZM49.3834 55.0597L48.0634 54.4572L48.9334 52.5313C49.3147 52.8379 49.7309 53.0997 50.1734 53.3115L49.3834 55.0597ZM31.0134 49.835V49.9436C31.0169 49.9174 31.0169 49.8908 31.0134 49.8646M54.0134 40.8868L54.3234 40.9757L54.4034 41.0745L54.0834 40.9856C54.0659 40.949 54.0422 40.9156 54.0134 40.8868ZM51.6534 40.8868L51.8334 40.9856L52.0334 41.3411H51.8634C51.7967 41.1831 51.7267 41.035 51.6534 40.8967M48.0034 49.9337C47.9988 49.9797 47.9988 50.026 48.0034 50.072C48.0089 50.0261 48.0089 49.9797 48.0034 49.9337ZM44.3334 55.9288L44.9334 56.2448C44.9334 56.2448 44.7534 56.4819 44.1334 56.4819C44.1288 56.3158 44.1087 56.1505 44.0734 55.9881H44.2934M38.2934 54.7436L38.8534 54.4671C38.7417 54.9458 38.6582 55.4306 38.6034 55.9189C38.4204 55.9338 38.2364 55.9338 38.0534 55.9189C38.0947 55.5172 38.1751 55.1203 38.2934 54.7337M35.0434 56.2448L35.3634 56.0868C35.3575 56.202 35.3575 56.3173 35.3634 56.4325C35.3031 56.423 35.2454 56.4014 35.1938 56.3691C35.1423 56.3369 35.0979 56.2946 35.0634 56.2448M38.8034 53.351L39.0934 53.4794C39.0887 53.5287 39.0887 53.5783 39.0934 53.6276L38.6334 53.8547C38.6934 53.6868 38.7634 53.5189 38.8334 53.351M44.7334 47.7609C43.8127 47.6612 42.8879 47.9081 42.1434 48.4523C42.242 48.2153 42.3945 48.0039 42.5891 47.8345C42.7837 47.665 43.0152 47.5421 43.2656 47.4753C43.5161 47.4084 43.7787 47.3994 44.0332 47.449C44.2878 47.4985 44.5273 47.6052 44.7334 47.7609ZM43.1334 51.5831C42.7825 51.4276 42.4477 51.239 42.1334 51.0202H42.1834H42.4134C42.7777 51.0444 43.1182 51.2073 43.3634 51.4745L43.1334 51.5831ZM38.5334 51.5831H38.4434C38.5434 51.4745 38.6434 51.3658 38.7334 51.2473C38.6634 51.356 38.6034 51.4646 38.5334 51.5634M39.4634 51.5634C39.4634 51.4547 39.5334 51.3461 39.5534 51.2374C39.5534 51.3461 39.5534 51.4547 39.5534 51.5634M42.3434 52.6695L42.6934 52.5016C43.1045 52.7827 43.4776 53.1146 43.8034 53.4893C43.3371 53.3138 42.8885 53.0955 42.4634 52.8374L42.3434 52.6893M42.0934 52.0671V52.0967ZM40.4234 51.3066C40.4661 51.5003 40.5195 51.6915 40.5834 51.8794H40.5034C40.5034 51.7016 40.4434 51.5239 40.4234 51.3362M43.5234 49.2621C43.7334 49.9535 44.1334 50.5856 45.6034 49.9337C45.6018 50.0699 45.6477 50.2024 45.7334 50.309L43.4934 51.4053C43.4934 50.714 42.9534 50.4177 42.4934 50.1016C42.6534 49.8844 42.4934 49.7856 43.4934 49.2127M43.4934 49.2127C43.8668 49.1143 44.2599 49.1143 44.6334 49.2127C44.4611 49.3146 44.2641 49.3683 44.0634 49.3683C43.8626 49.3683 43.6656 49.3146 43.4934 49.2127ZM46.1034 49.8745L46.2434 49.9831H46.3034L45.9634 50.151C46.0045 50.0658 46.0513 49.9833 46.1034 49.9041M45.9334 53.2226C45.3032 52.7387 44.6343 52.306 43.9334 51.9288L46.7734 50.5263C46.8351 51.0089 46.7921 51.4989 46.6473 51.9638C46.5025 52.4287 46.2591 52.8578 45.9334 53.2226ZM37.3434 51.1584H37.2934L37.1934 51.109L37.4334 51.0399C37.5334 51.0399 37.5234 51.0399 37.9134 50.9806C37.7958 51.0741 37.6722 51.1599 37.5434 51.2374H37.4434M36.3434 50.7337L36.2034 50.6646C36.2034 50.6646 36.2034 50.6646 36.1134 50.6646C36.1134 50.6646 36.1134 50.6646 36.0134 50.6646L35.8834 50.5955H35.7934L35.4234 50.3189H35.3734H35.2734C35.7934 50.2202 36.0334 50.3189 36.4534 49.3313C35.1334 50.0128 34.1434 47.5436 36.7734 47.6029C38.0134 48.235 38.5234 49.8942 36.6134 50.9708H36.5134H36.4234H36.3334H36.2334M34.9334 55.7313C34.9276 55.6953 34.9276 55.6586 34.9334 55.6226L35.0034 55.6819L34.9334 55.7313ZM29.5934 47.514C29.5911 47.5502 29.5911 47.5864 29.5934 47.6226C29.5934 47.6226 29.5934 47.6226 29.5334 47.6226V47.5634H29.5834M38.5834 57.7362C38.3587 57.5753 38.1992 57.3408 38.1334 57.0745H38.5534C38.5326 57.2913 38.5326 57.5095 38.5534 57.7263M41.2234 55.3461C41.3503 55.1394 41.4638 54.9249 41.5634 54.7041H41.6134C41.5334 55.3955 42.4734 56.0374 41.3434 57.6671C41.4019 56.8718 41.3616 56.0724 41.2234 55.2868M50.2934 47.5337V47.593C50.2934 47.593 50.2934 47.8103 50.2934 47.9387L49.6034 48.2942C49.593 48.2222 49.593 48.149 49.6034 48.0769H49.6534C49.6897 48.0841 49.7271 48.0841 49.7634 48.0769C49.8734 48.0769 49.8234 48.1263 50.1834 47.8004C50.2346 47.7542 50.2667 47.6909 50.2734 47.6226M52.7334 39.2572C52.8434 39.3461 53.1734 39.7313 53.5734 40.2448L53.3534 40.1658C53.1294 39.892 52.9223 39.6051 52.7334 39.3066M51.3034 40.2942C51.3499 40.356 51.3901 40.4221 51.4234 40.4918C51.3906 40.4285 51.3638 40.3624 51.3434 40.2942M25.4734 41.4992C25.3803 41.4896 25.2865 41.4896 25.1934 41.4992C25.8834 40.6794 26.9534 39.3955 27.1934 39.2276C27.1034 39.4152 26.1934 40.6004 25.5034 41.5387M23.8934 47.7016H23.5534C23.5408 47.8628 23.4722 48.0148 23.3592 48.1318C23.2463 48.2488 23.0958 48.3236 22.9334 48.3436L22.8234 48.2844L22.7334 48.2053L22.6534 48.1066C22.5876 47.9785 22.5599 47.8347 22.5734 47.6918C22.5831 47.5478 22.6432 47.4116 22.7434 47.3066C22.6682 47.2356 22.5981 47.1598 22.5334 47.0794C22.4742 46.9975 22.4208 46.9117 22.3734 46.8226C22.1492 46.3752 22.0993 45.862 22.2334 45.3807C22.3953 44.9868 22.6716 44.649 23.0275 44.41C23.3834 44.171 23.803 44.0413 24.2334 44.0374C24.3134 43.8794 24.2334 43.8202 24.9934 43.5535C24.9934 43.6918 25.3834 43.7313 25.0734 44.472C25.3006 44.7393 25.452 45.0612 25.5123 45.405C25.5726 45.7489 25.5396 46.1024 25.4167 46.4295C25.2937 46.7567 25.0852 47.0458 24.8124 47.2675C24.5395 47.4893 24.2121 47.6356 23.8634 47.6918M39.1334 21.6769C39.6862 21.7092 40.2405 21.7092 40.7934 21.6769C41.7703 22.5146 42.9474 23.0925 44.2134 23.356C43.4143 23.4072 42.6122 23.3203 41.8434 23.0992C41.8434 23.593 42.9534 24.1658 43.6634 24.314C43.1298 24.3819 42.5875 24.3069 42.0934 24.0967C42.3253 24.4653 42.6783 24.7442 43.0934 24.8868C42.7719 25.2111 42.3793 25.4582 41.9458 25.6088C41.5124 25.7595 41.0497 25.8099 40.5934 25.756C40.7239 25.9125 40.892 26.0343 41.0824 26.1102C41.2728 26.1861 41.4794 26.2137 41.6834 26.1905C40.7107 27.5366 40.1077 29.1087 39.9334 30.7535C39.7564 29.1186 39.161 27.5552 38.2034 26.2103C38.4089 26.2342 38.6172 26.207 38.8093 26.1311C39.0015 26.0552 39.1713 25.933 39.3034 25.7757C38.8485 25.8327 38.3864 25.7837 37.954 25.6328C37.5217 25.4819 37.131 25.2332 36.8134 24.9066C37.2254 24.7586 37.5767 24.481 37.8134 24.1165C37.3192 24.3266 36.777 24.4017 36.2434 24.3337C36.9534 24.1856 38.0334 23.6127 38.0634 23.1189C37.2912 23.3406 36.4858 23.4275 35.6834 23.3757C36.9634 23.1156 38.1526 22.53 39.1334 21.6769ZM48.9334 49.6671C48.9252 49.6114 48.9252 49.5548 48.9334 49.4992C48.9236 49.5192 48.9186 49.5411 48.9186 49.5634C48.9186 49.5856 48.9236 49.6075 48.9334 49.6276M48.9334 49.7165C48.9202 49.7408 48.9134 49.7679 48.9134 49.7955C48.9134 49.823 48.9202 49.8502 48.9334 49.8745C48.9234 49.8057 48.9234 49.7359 48.9334 49.6671V49.7165ZM61.2934 32.7782C60.5806 32.4446 59.7855 32.3211 59.0034 32.4226C59.5833 32.2803 60.1123 31.9829 60.5322 31.5629C60.952 31.143 61.2466 30.6169 61.3834 30.0424C60.6809 29.8688 59.9459 29.8688 59.2434 30.0424C59.7345 29.7777 60.1482 29.3922 60.4442 28.9233C60.7403 28.4544 60.9088 27.9179 60.9334 27.3658C60.1152 27.3461 59.3037 27.5152 58.5634 27.8597C60.1834 26.9806 60.7634 24.8967 59.9034 23.7115C59.4134 23.9979 57.1234 26.2992 56.7534 26.556C58.2034 24.6399 60.2134 22.4769 57.9334 20.1263C56.8758 22.2516 55.6204 24.2751 54.1834 26.1708C54.0923 26.0468 53.9674 25.9509 53.8234 25.8942C53.4571 26.8748 52.8322 27.7408 52.0134 28.4029C51.9537 28.2418 51.873 28.0891 51.7734 27.9486C45.9334 31.4745 50.9334 37.4794 45.9934 35.1782C46.2287 35.1396 46.4489 35.0383 46.6302 34.8851C46.8115 34.732 46.947 34.5329 47.0222 34.3093C47.0973 34.0857 47.1092 33.846 47.0565 33.6163C47.0039 33.3865 46.8887 33.1752 46.7234 33.0053C46.2734 33.272 45.9734 34.1411 44.3534 32.9362C44.5266 33.0229 44.7208 33.0604 44.9144 33.0446C45.1079 33.0287 45.2932 32.9602 45.4497 32.8466C45.6062 32.733 45.7277 32.5788 45.8007 32.4011C45.8737 32.2233 45.8954 32.0291 45.8634 31.8399C43.5634 32.9955 43.2734 29.035 45.3934 27.3955C45.6234 27.8498 48.1234 26.4868 48.3334 28.6004C49.2634 28.0769 48.9234 27.2374 47.7334 26.9115C48.7334 27.0794 51.3734 29.3214 51.5634 26.4572C51.1234 27.4942 49.4034 26.6745 47.6234 26.4572C48.0201 26.2122 48.4891 26.1071 48.954 26.1591C49.4189 26.2111 49.8522 26.4172 50.1834 26.7436C50.4365 26.5223 50.6111 26.2267 50.6815 25.9001C50.7519 25.5736 50.7144 25.2334 50.5745 24.9294C50.4346 24.6255 50.1997 24.3739 49.9043 24.2115C49.6089 24.0492 49.2686 23.9847 48.9334 24.0276C48.9408 23.9699 48.9329 23.9113 48.9106 23.8575C48.8882 23.8037 48.852 23.7566 48.8056 23.7207C48.7593 23.6849 48.7043 23.6616 48.646 23.653C48.5878 23.6445 48.5283 23.651 48.4734 23.672C48.4761 23.6252 48.4676 23.5784 48.4485 23.5355C48.4294 23.4925 48.4002 23.4547 48.3634 23.4251C50.2334 23.593 51.8734 21.8152 50.9534 19.3165C51.4395 19.6086 51.9746 19.8126 52.5334 19.9189C53.2134 21.0942 51.2834 22.5165 52.7534 24.2251C52.7724 24.3781 52.7522 24.5334 52.6945 24.6767C52.6369 24.8199 52.5436 24.9465 52.4234 25.0448C53.0534 24.8967 54.0434 24.5115 53.0834 22.7634C53.2434 23.8202 54.7034 22.1609 54.7934 23.751C56.7934 22.1609 53.4134 22.6942 54.2034 21.5881C54.8434 20.6992 55.3534 19.83 53.0634 19.3461C52.5534 17.5683 48.3834 17.3708 49.7234 20.6498C50.1034 21.43 50.5234 22.7732 48.1934 23.2078V22.9806C48.5434 22.3584 49.4134 20.6004 47.5534 20.2745C47.4434 20.2152 47.5534 20.2745 47.1434 20.2745V20.4325H47.0234V20.2152C47.0234 20.1362 47.2834 20.0769 47.0234 19.593H47.1634C47.0629 19.4968 46.9725 19.3909 46.8934 19.2769C47.0072 19.3534 47.1143 19.4393 47.2134 19.5337V18.5461C47.1129 18.642 47.006 18.7311 46.8934 18.8127C46.9696 18.6966 47.0603 18.5904 47.1634 18.4967H46.1634C46.2635 18.5932 46.354 18.699 46.4334 18.8127C46.3187 18.7297 46.2085 18.6407 46.1034 18.5461V19.5337C46.2031 19.4331 46.3137 19.3436 46.4334 19.2671C46.3508 19.3784 46.2606 19.484 46.1634 19.5831H46.3034C46.3034 19.6819 46.0434 19.7313 46.3034 20.2053V20.4226H46.1734V20.2646C45.9934 20.2152 46.1734 20.2646 45.7734 20.2646C44.9134 20.6597 44.0134 21.0646 45.1234 22.9708V23.1189C43.9609 22.6831 42.9046 22.01 42.0234 21.1436V20.5016C42.7234 19.593 43.9234 16.6893 41.2334 16.3041C41.157 16.2515 41.0685 16.2185 40.976 16.2082C40.8834 16.1978 40.7897 16.2104 40.7034 16.2448V16.4918H40.4234V16.1856H40.2734C40.2734 16.0967 40.8834 15.909 40.3734 15.1387H40.5934C40.4323 14.989 40.3001 14.8117 40.2034 14.6152C40.4014 14.708 40.5809 14.8351 40.7334 14.9905V13.7757C40.588 13.9347 40.411 14.0625 40.2134 14.151C40.3053 13.9543 40.4343 13.7767 40.5934 13.6276H39.3334C39.4925 13.7767 39.6215 13.9543 39.7134 14.151C39.5142 14.0602 39.3344 13.9329 39.1834 13.7757V15.0202C39.3397 14.8692 39.5184 14.7426 39.7134 14.6448C39.6239 14.843 39.4947 15.0211 39.3334 15.1683H39.5534C39.5534 15.3066 38.9734 15.4942 39.6534 16.2152H39.4934V16.5214H39.2034V16.2745C39.117 16.24 39.0233 16.2274 38.9308 16.2378C38.8382 16.2481 38.7498 16.2811 38.6734 16.3337C36.8634 16.6992 36.3834 18.309 37.8834 20.5313V21.1831C37.018 22.064 35.9615 22.7395 34.7934 23.1584V23.0103C35.1434 22.3881 36.0134 20.63 34.1434 20.3041C34.0434 20.2448 34.1434 20.3041 33.7434 20.3041V20.4621H33.6234V20.2448C33.6234 20.1658 33.8734 20.1066 33.6234 19.6226H33.7634C33.6663 19.5234 33.5761 19.4178 33.4934 19.3066C33.6109 19.3859 33.7213 19.4752 33.8234 19.5732V18.5856C33.7206 18.6829 33.6103 18.7721 33.4934 18.8523C33.5696 18.7361 33.6603 18.63 33.7634 18.5362H32.7634C32.8666 18.6298 32.9573 18.736 33.0334 18.8523C32.9165 18.7721 32.8061 18.6829 32.7034 18.5856V19.5732L33.0334 19.3165C32.9543 19.4305 32.8639 19.5363 32.7634 19.6325H32.9334C32.9334 19.7313 32.6834 19.7806 32.9334 20.2547V20.472H32.8134V20.314C32.6234 20.2646 32.8134 20.314 32.4034 20.314C31.5434 20.709 30.6334 21.1239 31.7534 23.0202V23.2473C28.2934 23.8202 32.5934 14.6448 26.8834 19.3856C24.0534 19.1584 26.6234 22.4276 25.3034 22.23C24.8534 22.1708 24.0734 22.8424 25.1534 23.7905C24.8734 23.0794 25.7534 23.4646 26.8634 22.8029C26.7134 23.5041 25.6534 24.4325 27.5234 25.0844C27.4078 24.9823 27.3178 24.8552 27.2606 24.7129C27.2033 24.5706 27.1803 24.4172 27.1934 24.2646C28.2834 22.9807 27.3234 21.9041 27.4134 19.9584C27.9534 19.8316 28.4675 19.6144 28.9334 19.3165C29.2434 21.2918 27.4034 22.9214 31.5234 23.4251C31.4866 23.4547 31.4574 23.4925 31.4383 23.5355C31.4192 23.5784 31.4106 23.6252 31.4134 23.672C31.3585 23.651 31.299 23.6445 31.2407 23.653C31.1825 23.6616 31.1275 23.6849 31.0811 23.7207C31.0347 23.7566 30.9986 23.8037 30.9762 23.8575C30.9538 23.9113 30.9459 23.9699 30.9534 24.0276C30.2334 24.0769 28.2734 25.0152 29.7334 26.714C30.0645 26.3875 30.4979 26.1815 30.9628 26.1295C31.4277 26.0775 31.8967 26.1825 32.2934 26.4276C31.2934 25.9831 29.7734 28.0967 28.3534 26.4276C28.2934 27.6819 29.6234 28.5609 32.1834 26.8819C30.9934 27.2078 30.6534 28.0473 31.5834 28.5708C31.7534 27.4053 31.9934 27.4152 34.5134 27.3658C35.4634 27.9979 37.6634 32.4424 34.0534 31.8103C34.0213 31.9995 34.043 32.1937 34.1161 32.3714C34.1891 32.5491 34.3106 32.7034 34.4671 32.817C34.6236 32.9306 34.8089 32.9991 35.0024 33.0149C35.1959 33.0307 35.3901 32.9932 35.5634 32.9066C35.4734 32.9856 34.1634 34.1708 33.1934 32.9757C33.0281 33.1456 32.9129 33.3568 32.8602 33.5866C32.8076 33.8164 32.8195 34.056 32.8946 34.2797C32.9697 34.5033 33.1053 34.7024 33.2866 34.8555C33.4679 35.0086 33.688 35.11 33.9234 35.1486C30.3134 36.8473 31.3634 34.6448 31.5434 31.5535C31.0734 30.8819 29.2734 29.3214 28.1234 27.9189C28.0237 28.0594 27.9431 28.2122 27.8834 28.3732C27.0617 27.7139 26.4362 26.8469 26.0734 25.8646C25.9309 25.9239 25.8067 26.0193 25.7134 26.1411C24.2764 24.2455 23.021 22.222 21.9634 20.0967C19.9634 21.7856 21.0834 24.0473 23.1834 26.5263C22.8234 26.2695 20.5334 23.9683 20.0334 23.6819C19.1834 24.8769 19.7634 26.951 21.3734 27.83C20.6369 27.4846 19.8284 27.3155 19.0134 27.3362C19.0281 27.8922 19.1889 28.4348 19.4799 28.9109C19.7709 29.3871 20.1822 29.7804 20.6734 30.0523C19.9709 29.8787 19.2359 29.8787 18.5334 30.0523C18.6724 30.6279 18.9703 31.1542 19.394 31.5727C19.8177 31.9911 20.3505 32.2853 20.9334 32.4226C20.1546 32.3219 19.3629 32.4454 18.6534 32.7782C18.811 33.3248 19.1378 33.809 19.5878 34.1632C20.0378 34.5174 20.5887 34.7238 21.1634 34.7535C20.3729 34.806 19.6341 35.1602 19.1034 35.7411C19.3609 36.0878 19.7009 36.3664 20.0933 36.5525C20.4857 36.7385 20.9185 36.8262 21.3534 36.8078C21.0404 36.9118 20.7527 37.0787 20.5083 37.298C20.2639 37.5172 20.0681 37.7842 19.9334 38.0819C20.5434 38.5658 21.3134 38.872 23.0834 38.2498C21.0834 39.0794 21.4534 39.4844 21.1434 40.3436C21.9234 40.8671 23.4734 40.6103 25.0234 39.1485C24.7034 39.7708 22.2334 40.3831 22.9634 42.2399H23.2534C23.2263 42.2681 23.2059 42.3018 23.1934 42.3387C22.7834 42.2399 21.7834 42.1806 21.1934 43.5732C21.0434 43.4745 20.6734 43.5732 20.1134 44.393C20.1105 44.4456 20.1105 44.4984 20.1134 44.551C20.1134 44.6103 20.1134 44.551 20.1134 44.709V44.8473L20.1834 44.9856L20.2634 45.0942L20.3734 45.193C20.2766 45.3345 20.2056 45.4916 20.1634 45.6572C20.1651 45.6769 20.1651 45.6967 20.1634 45.7165C20.1524 45.8314 20.1524 45.9472 20.1634 46.0621C20.1669 46.085 20.1669 46.1084 20.1634 46.1313C20.1545 46.1736 20.1545 46.2173 20.1634 46.2597C20.1634 46.2597 20.1634 46.3387 20.1634 46.4572C20.1654 46.4802 20.1654 46.5033 20.1634 46.5263C20.1634 46.5757 20.2134 46.6449 20.2834 46.7634C20.2852 46.7831 20.2852 46.8029 20.2834 46.8226V46.8819L20.3734 46.9708C20.4509 47.0504 20.5383 47.12 20.6334 47.1782H20.6934C20.6312 47.3108 20.607 47.4577 20.6234 47.6029V47.6621C20.6254 47.6851 20.6254 47.7083 20.6234 47.7313V47.7905C20.6676 47.8718 20.7288 47.9429 20.8029 47.9991C20.8771 48.0553 20.9624 48.0953 21.0534 48.1165C20.9926 48.2398 20.9586 48.3744 20.9534 48.5115C20.9534 48.5115 20.9534 48.5115 20.9534 48.6597C20.9615 48.737 20.9783 48.8131 21.0034 48.8868C21.0034 48.8868 21.0034 48.8868 21.0034 48.9658C21.103 49.1446 21.2619 49.2841 21.4534 49.3609H21.5034H21.5934H21.6834H22.4934H22.5434H22.9334H23.0134C23.0134 49.3609 23.0134 49.3609 23.1634 49.2424C23.2371 49.1795 23.3011 49.1063 23.3534 49.0251H23.5334H23.6434H23.7134C23.7134 49.0251 23.7134 49.0251 23.8434 49.0251C23.9537 49.0196 24.0606 48.9855 24.1534 48.9263H24.2034H24.2534H24.3034C24.3322 48.8883 24.3589 48.8487 24.3834 48.8078C24.4465 48.8145 24.5102 48.8145 24.5734 48.8078H24.6534H24.7834H24.9134C25.029 48.7978 25.1431 48.7746 25.2534 48.7387H25.3234L25.9334 49.3313H26.3034L27.0134 47.8498C27.1734 47.9486 27.0134 47.8498 27.4634 48.0572C27.453 48.1027 27.453 48.1499 27.4634 48.1955L29.6334 49.1831C29.6287 49.2126 29.6287 49.2426 29.6334 49.272V49.3313C29.6334 49.3313 29.6334 49.3313 29.6334 49.3905C29.6167 49.4191 29.6079 49.4514 29.6079 49.4844C29.6079 49.5173 29.6167 49.5497 29.6334 49.5782C29.6281 49.5872 29.6253 49.5974 29.6253 49.6078C29.6253 49.6182 29.6281 49.6284 29.6334 49.6374C29.7434 49.835 29.6334 50.0325 30.2134 50.0226C30.3134 49.9436 30.3334 50.0226 30.4634 49.4695C30.5334 49.6473 30.4134 49.5584 30.3834 50.1411C30.4096 50.1799 30.4435 50.213 30.4831 50.2384C30.5226 50.2639 30.5669 50.2812 30.6134 50.2893C30.6134 50.2893 30.6734 50.2893 30.8534 50.2893C30.9134 50.2893 31.0234 50.2893 31.0034 50.1313C31.0034 50.1313 30.9534 50.2893 31.1634 50.4572C31.1634 50.4572 31.2234 50.4572 31.4334 50.4572H31.4834C31.5834 50.4572 31.5434 50.5165 31.7234 50.3486C31.9034 50.1807 31.7234 50.3486 31.7834 50.0029L35.8434 51.8695C35.4834 51.751 32.5334 54.8819 33.1434 52.235C32.7134 52.2942 31.9334 52.8276 31.9334 53.9732C30.9334 54.1214 29.6734 57.1041 30.5834 57.2029C30.7054 56.566 31.0616 55.9961 31.5834 55.6029C31.5834 56.1757 31.4434 56.1461 32.1434 57.1634C32.0834 57.4004 29.8734 57.9041 29.8634 58.6053C30.1934 58.9905 31.3034 58.0128 32.2034 57.6967V57.8448C32.5134 57.7461 32.4034 57.8448 32.8434 57.4103L33.3134 57.1732C33.4326 57.4772 33.641 57.7392 33.9117 57.9257C34.1825 58.1122 34.5033 58.2147 34.8334 58.2202C34.4291 58.6856 33.8796 59.0052 33.2714 59.1285C32.6632 59.2519 32.0307 59.1721 31.4734 58.9016C31.4734 60.0276 35.3534 60.8769 36.1734 58.2004C36.8134 58.4769 36.6834 59.4646 38.8534 58.6745C39.0958 59.1951 39.4673 59.6469 39.9334 59.9881C40.4154 59.67 40.8022 59.23 41.0534 58.714C41.3634 58.872 43.3534 59.5732 43.9734 57.7263C44.5234 58.0621 46.0734 58.793 46.6934 56.9757L47.0634 57.1436C47.2234 57.2523 46.8534 57.43 47.7634 57.7757C47.7063 57.6695 47.6787 57.5502 47.6834 57.43L50.5734 58.7634C50.7034 58.7634 50.5734 58.7634 51.0734 58.7634H51.2034C51.2034 58.7634 51.2034 58.7634 51.2634 58.7634H51.3234C51.3234 58.7634 51.3234 58.7634 51.4234 58.6942L51.5134 58.5955L51.5834 58.4868C51.579 58.4673 51.579 58.4471 51.5834 58.4276C51.5818 58.4078 51.5818 58.388 51.5834 58.3683C51.5795 58.3521 51.5795 58.3352 51.5834 58.3189C51.5834 58.3189 51.5834 58.2399 51.5834 58.1313C51.5834 58.1313 51.5834 58.1313 51.5834 58.0128C51.5719 57.9725 51.5514 57.9354 51.5234 57.9041C51.4965 57.8456 51.4553 57.7947 51.4034 57.756C51.4034 57.756 51.4034 57.756 51.2934 57.6868L51.0634 57.5782L50.3534 57.2325L50.6634 56.5806L52.1334 57.2325L53.7634 53.8152V53.6572L53.2934 53.4399C54.4934 53.1732 55.5834 49.5683 53.5834 49.1041C53.2681 49.1824 52.9349 49.1474 52.6434 49.0053C52.6434 49.3411 53.2934 49.914 53.2934 49.914C53.4234 50.1115 53.4534 50.4078 52.4434 49.7263C55.6034 53.0646 49.9634 52.7485 48.7734 50.5856C48.8734 50.4967 48.8834 50.5066 48.9234 50.2597C48.9234 50.3782 49.0234 50.3979 49.0834 50.4177C49.2034 50.4177 49.0834 50.4177 49.3234 50.4177C49.5634 50.4177 49.3234 50.4177 49.5834 50.2399C49.6434 50.1115 49.5334 50.1313 49.4934 49.5979V49.4597C49.4934 49.7658 49.3534 49.6177 49.7234 50.1115C49.7234 50.1115 50.3134 50.2004 50.2834 49.6671C50.3001 49.6385 50.3088 49.6062 50.3088 49.5732C50.3088 49.5403 50.3001 49.5079 50.2834 49.4794C50.2834 49.4794 50.2834 49.4794 50.2834 49.272C50.4397 49.1339 50.5482 48.9508 50.5934 48.7485H50.6734C50.7195 48.7584 50.7672 48.7584 50.8134 48.7485C50.8134 48.7485 50.8134 48.7485 50.8734 48.6794L51.0534 48.5905C51.1051 48.6064 51.1611 48.6019 51.2095 48.5779C51.258 48.554 51.2952 48.5125 51.3134 48.4621L55.4234 46.4276L55.4834 46.5362L56.7134 45.9041L56.6634 45.8251L57.1634 45.5782C57.0038 45.3562 56.8759 45.1136 56.7834 44.8572L56.2934 45.1041L56.2434 45.0053L54.9934 45.3807L55.0634 45.4992L51.0634 47.4745C51.0543 47.4693 51.0439 47.4665 51.0334 47.4665C51.0228 47.4665 51.0125 47.4693 51.0034 47.4745C51.0034 47.4745 51.0034 47.4745 51.0034 47.4152C51.0034 47.3165 51.0034 47.3461 50.9334 47.1288C50.9354 47.1025 50.9354 47.0761 50.9334 47.0498C50.9334 46.9016 50.9334 46.9708 50.5034 46.793L50.3134 46.6646C50.3134 46.6646 50.3134 46.6646 50.2534 46.6053C50.1934 46.5461 50.2534 46.6053 50.0834 46.6053H50.0034C49.9434 46.6053 49.9434 46.6053 49.9334 46.7041C49.9234 46.8029 49.8734 46.7041 49.8434 46.7732C49.6734 46.0226 49.5934 45.4202 48.0734 44.9263C48.4434 43.9387 50.4934 43.8498 50.6734 45.9732C50.7234 45.6671 50.8434 43.9979 51.3734 46.23C51.431 45.9151 51.6014 45.6312 51.8534 45.43C51.8534 45.43 52.1834 44.9955 51.7434 44.1461C51.8556 44.1692 51.9635 44.2092 52.0634 44.2646C52.3034 43.8202 52.8334 43.6621 52.7534 43.109C53.3521 43.4055 54.005 43.5802 54.6734 43.6226L54.5834 43.5337C54.5879 43.5076 54.5879 43.4809 54.5834 43.4547C54.6354 43.5184 54.696 43.5749 54.7634 43.6226C54.9134 43.6226 54.1334 43.9387 54.8334 44.3831C54.9534 44.314 54.4134 44.8177 55.0334 44.8967C55.0334 44.8967 54.9134 45.1337 55.0334 45.2819L56.0334 44.7683C55.8734 44.6893 54.1934 43.6621 56.1534 42.7239C56.2752 42.5913 56.3551 42.4266 56.3834 42.2498C56.5539 42.2078 56.728 42.1814 56.9034 42.1708C57.2934 41.1831 56.1734 39.8992 54.8434 39.0794C55.8434 39.593 57.0834 41.3609 58.7234 40.2745C58.4134 39.4152 58.8034 39.0103 56.7834 38.1806C58.5534 38.8029 59.3234 38.4967 59.9334 38.0127C59.8076 37.7144 59.621 37.4447 59.3854 37.2205C59.1497 36.9962 58.8699 36.8221 58.5634 36.709C58.9984 36.7283 59.4315 36.641 59.8241 36.4549C60.2166 36.2688 60.5565 35.9897 60.8134 35.6424C60.2827 35.0614 59.5439 34.7072 58.7534 34.6547C59.328 34.625 59.8789 34.4186 60.329 34.0644C60.779 33.7103 61.1057 33.226 61.2634 32.6794" fill="#808D9C"/>
<path d="M58.1034 42.7337C57.9057 42.8315 57.7318 42.9704 57.5937 43.1409C57.4556 43.3114 57.3566 43.5094 57.3034 43.7214L57.2034 43.7905L57.1534 43.9288C57.1186 43.9141 57.0812 43.9065 57.0434 43.9065C57.0056 43.9065 56.9682 43.9141 56.9334 43.9288C56.6434 44.0572 56.8034 44.3831 56.8034 44.3831C56.8034 44.3831 56.9334 44.7386 57.0334 44.946C57.1369 45.1414 57.2539 45.3294 57.3834 45.509C57.3834 45.509 57.6134 45.7559 57.8234 45.6473C57.8682 45.6229 57.9057 45.5872 57.9321 45.5438C57.9584 45.5004 57.9727 45.4509 57.9734 45.4004H58.0834H58.2834C58.5204 45.483 58.7745 45.5062 59.0229 45.468C59.2713 45.4298 59.5062 45.3314 59.7066 45.1815C59.907 45.0317 60.0666 44.8351 60.1712 44.6093C60.2758 44.3836 60.3221 44.1357 60.3059 43.888C60.2897 43.6402 60.2116 43.4003 60.0785 43.1897C59.9454 42.9791 59.7615 42.8044 59.5432 42.6812C59.325 42.558 59.0792 42.4902 58.828 42.4839C58.5767 42.4775 58.3277 42.5328 58.1034 42.6448" fill="#808D9C"/>
<path d="M54.9334 45.3807C54.7634 45.114 54.8734 45.0054 54.8734 45.0054C54.8228 45.0027 54.7742 44.9856 54.7334 44.956L54.1834 45.2325C54.0834 45.2918 53.8934 45.4103 53.8634 45.5387C54.2279 45.6079 54.6053 45.5521 54.9334 45.3807Z" fill="#808D9C"/>
<path d="M54.7034 44.9362C54.5934 44.8473 54.5634 44.7782 54.5834 44.6794C54.6034 44.5807 54.5834 44.5017 54.7034 44.4523H54.6034C54.6034 44.4523 54.3034 44.4523 54.2534 44.4523C53.9189 44.5047 53.6048 44.6445 53.3434 44.8572C53.6534 45.1733 54.3434 45.0745 54.7034 44.9757" fill="#808D9C"/>
<path d="M54.5634 44.393C54.513 44.3562 54.4715 44.3087 54.4421 44.254C54.4127 44.1993 54.396 44.1388 54.3934 44.077C54.3878 44.0155 54.3976 43.9535 54.422 43.8967C54.4464 43.8398 54.4847 43.7898 54.5334 43.751C53.9268 43.6738 53.3107 43.7209 52.7234 43.8893C52.8922 44.0574 53.0957 44.1876 53.32 44.2711C53.5443 44.3547 53.7842 44.3895 54.0234 44.3733H54.5634" fill="#808D9C"/>
<path d="M58.3334 46.9708C57.9734 46.9708 57.7534 47.2572 57.4034 47.2572C57.261 47.26 57.1202 47.2271 56.9943 47.1614C56.8683 47.0958 56.7613 46.9996 56.6834 46.8819C56.5175 46.5614 56.4817 46.1905 56.5834 45.8448L55.5834 46.3683C55.5834 46.5757 55.8834 46.6251 55.8834 46.6251C55.8508 46.6788 55.8335 46.7402 55.8335 46.8029C55.8335 46.8655 55.8508 46.9269 55.8834 46.9806C55.9834 47.1486 56.2234 47.0794 56.2234 47.0794C56.2234 47.0794 56.2234 47.435 56.3634 47.5732C56.4284 47.6115 56.5027 47.6317 56.5784 47.6317C56.6541 47.6317 56.7284 47.6115 56.7934 47.5732C56.7902 47.6671 56.8073 47.7606 56.8435 47.8474C56.8797 47.9343 56.9342 48.0125 57.0034 48.0769C57.068 48.1163 57.1425 48.1371 57.2184 48.1371C57.2943 48.1371 57.3687 48.1163 57.4334 48.0769C57.4334 48.0769 57.5134 48.3337 57.6434 48.393C57.7209 48.4095 57.8017 48.4023 57.8749 48.3723C57.9482 48.3423 58.0104 48.2909 58.0534 48.2251C58.0772 48.3308 58.1222 48.4307 58.1857 48.5189C58.2493 48.6071 58.3301 48.6818 58.4234 48.7387C58.509 48.7708 58.6015 48.7814 58.6923 48.7693C58.7831 48.7572 58.8694 48.7229 58.9434 48.6695C59.2234 48.4621 59.0534 48.7782 59.0234 48.8572C58.9034 49.2523 58.7634 49.6276 58.6334 50.0127C58.5666 50.1586 58.532 50.3169 58.532 50.4769C58.532 50.637 58.5666 50.7953 58.6334 50.9411C58.6334 50.9411 58.7934 51.1189 58.9234 51.0893C59.0334 50.6547 59.1834 50.23 59.3034 49.7955C59.4789 49.3127 59.58 48.8066 59.6034 48.2942C59.6049 47.9399 59.4929 47.5942 59.2834 47.3066C59.1851 47.1734 59.0528 47.0684 58.8999 47.0025C58.747 46.9365 58.5791 46.9119 58.4134 46.9313" fill="#808D9C"/>
<path d="M55.7334 46.6745C55.7334 46.6745 55.5934 46.6745 55.4634 46.4078C55.1293 46.5678 54.861 46.8363 54.7034 47.1683C54.8549 47.1934 55.0105 47.1654 55.1434 47.0893C55.3319 47.0076 55.5156 46.9153 55.6934 46.8128C55.6865 46.7669 55.6865 46.7203 55.6934 46.6745" fill="#808D9C"/>
<path d="M56.0734 47.2572C56.0683 47.2244 56.0683 47.1911 56.0734 47.1584C55.9856 47.1864 55.8912 47.1864 55.8034 47.1584C55.7589 47.1344 55.7222 47.0985 55.6975 47.0548C55.6727 47.0111 55.6609 46.9615 55.6634 46.9115C55.3534 47.1584 54.8834 47.6226 54.9634 48.0572C55.2936 47.9796 55.5951 47.8119 55.8334 47.5732C55.909 47.4853 55.9791 47.393 56.0434 47.2967" fill="#808D9C"/>
<path d="M56.2434 47.6522C56.1487 47.5645 56.0915 47.4444 56.0834 47.3164C56.0834 47.3164 55.8134 47.7312 55.7834 47.7609C55.6284 47.9379 55.5148 48.1465 55.4509 48.3719C55.3869 48.5972 55.3741 48.8337 55.4134 49.0646C55.8977 48.6995 56.2996 48.2386 56.5934 47.7115C56.5347 47.7314 56.4719 47.7364 56.4107 47.726C56.3495 47.7157 56.292 47.6903 56.2434 47.6522Z" fill="#808D9C"/>
<path d="M57.1234 48.2449C57.0625 48.2457 57.0024 48.2318 56.9483 48.2042C56.8943 48.1767 56.8479 48.1363 56.8134 48.0869C56.764 48.0375 56.7253 47.9789 56.6995 47.9144C56.6737 47.8499 56.6614 47.7809 56.6634 47.7115C56.6634 47.7115 56.5034 47.9683 56.4934 47.9683C56.1178 48.4747 55.9211 49.0889 55.9334 49.7165C56.1286 49.5952 56.3012 49.4415 56.4434 49.2622C56.5034 49.2622 57.1034 48.2745 57.1034 48.2745" fill="#808D9C"/>
<path d="M57.3034 49.193L57.7134 48.5115C57.6589 48.5171 57.6038 48.5092 57.5532 48.4885C57.5026 48.4678 57.458 48.435 57.4234 48.393C57.3779 48.3375 57.3439 48.2738 57.3234 48.2053C57.2838 48.213 57.243 48.213 57.2034 48.2053L56.9434 48.6201C56.607 49.2279 56.4155 49.9035 56.3834 50.5954C56.5063 50.4857 56.617 50.3632 56.7134 50.23C56.8834 49.9831 57.3034 49.2424 57.3034 49.2424" fill="#808D9C"/>
<path d="M58.1834 48.7486C58.068 48.6356 57.9822 48.4967 57.9334 48.3436C57.896 48.3966 57.8439 48.4377 57.7834 48.4621C57.7134 48.5609 57.2934 49.3412 57.2934 49.3412C56.9634 49.9436 56.4834 51.2473 56.7034 51.6029C57.0821 51.1636 57.3799 50.6622 57.5834 50.1214L58.1834 48.7486Z" fill="#808D9C"/>
<path d="M58.3334 50.4078L58.9634 48.7288C58.8708 48.8145 58.7527 48.8686 58.6266 48.8828C58.5005 48.897 58.3731 48.8707 58.2634 48.8078C58.2634 48.8078 57.8534 49.7954 57.6234 50.3584C57.325 51.0073 57.2142 51.7252 57.3034 52.4325C57.4502 52.3301 57.5702 52.1947 57.6534 52.0374C57.7219 51.9233 57.7821 51.8045 57.8334 51.6818L58.3334 50.4078Z" fill="#808D9C"/>
<path d="M58.3634 50.6251C58.0756 51.256 57.8674 51.9194 57.7434 52.6004C57.7574 53.0173 57.8454 53.4284 58.0034 53.8152L58.8034 51.2572C58.8034 51.2572 58.4134 51.2572 58.3634 50.6646" fill="#808D9C"/>
<path d="M39.9334 33.7164H34.6334V44.5806C34.6334 45.9238 35.1934 46.5559 36.3634 46.5559H38.1134C38.5339 46.5793 38.9363 46.7331 39.2631 46.9956C39.59 47.2581 39.8245 47.6158 39.9334 48.0177C40.0179 47.6045 40.2401 47.2312 40.5645 46.9573C40.889 46.6834 41.297 46.5247 41.7234 46.5066H43.4834C44.6434 46.5066 45.2134 45.8745 45.2134 44.5313V33.6671L39.9334 33.7164Z" fill="white"/>
<path d="M39.9334 33.7164H34.6334V44.5806C34.6334 45.9238 35.1934 46.5559 36.3634 46.5559H38.1134C38.5339 46.5793 38.9363 46.7331 39.2631 46.9956C39.59 47.2581 39.8245 47.6158 39.9334 48.0177C40.0179 47.6045 40.2401 47.2312 40.5645 46.9573C40.889 46.6834 41.297 46.5247 41.7234 46.5066H43.4834C44.6434 46.5066 45.2134 45.8745 45.2134 44.5313V33.6671L39.9334 33.7164Z" stroke="white" stroke-width="0.03" stroke-miterlimit="10"/>
<path d="M37.7734 44.1165H37.4834C37.4834 43.9782 37.3734 43.9288 37.3634 43.7807C37.3634 43.2572 37.1534 43.4646 37.6634 42.4868C38.1434 42.151 37.8034 42.1313 38.9534 41.4992C39.0934 41.5979 39.0634 41.914 38.9534 42.0325C38.9794 42.0862 38.9995 42.1425 39.0134 42.2004C39.0978 42.2446 39.189 42.2747 39.2834 42.2893C39.5034 42.477 39.4434 42.3881 40.0634 43.3757C40.0634 43.3757 40.0634 43.3066 40.0634 43.2671L40.1734 43.3658H40.0834C40.0834 43.435 40.0834 43.5338 40.1434 43.5338C40.2034 43.5338 39.8934 43.5338 39.8334 43.6226C39.7476 43.6289 39.6665 43.6637 39.6034 43.7214C39.5134 43.7214 39.4734 43.7214 39.4034 43.7905C39.8634 43.6029 38.0534 41.4893 37.7434 43.9979C37.7434 43.9979 37.7434 43.9979 37.6434 43.9979C37.5434 43.9979 37.7734 44.0572 37.7734 44.1362M40.3334 43.0202L39.8734 41.3905C39.9394 41.2686 39.977 41.1336 39.9834 40.9955C40.0934 40.9955 40.2134 40.9955 40.3334 40.9955C40.4135 41.1125 40.4585 41.2494 40.4634 41.3905C40.5534 41.3905 40.3534 41.5387 40.4634 41.8054C40.6434 41.8054 40.5134 41.8054 40.8334 41.7263C41.1034 41.7263 40.9834 41.7263 41.3334 42.1609C41.4283 42.4514 41.5701 42.7249 41.7534 42.9708C41.5734 42.9708 41.7534 42.9708 41.6134 43.2177C41.6134 43.2177 41.6134 43.0597 41.7734 43.1091C41.7734 43.1091 41.7734 43.1979 41.7734 43.2375C41.7734 43.277 41.7734 43.2375 41.6534 43.4449C41.6534 43.4449 41.6534 43.3955 41.6534 43.3658C41.6534 43.3362 41.6534 43.3658 41.7934 43.3658C41.805 43.4246 41.805 43.4849 41.7934 43.5436C41.7934 43.5436 41.7034 43.593 41.6834 43.6424C41.639 43.6312 41.5927 43.6298 41.5478 43.6383C41.5028 43.6468 41.4603 43.6651 41.4234 43.6918C41.4234 43.6918 41.4234 43.6918 41.5534 43.6918C41.6834 43.6918 41.5534 43.7412 41.5534 43.7905C41.5534 43.7905 41.4534 43.7905 41.4134 43.7905C41.3734 43.7905 41.1834 43.593 41.0034 43.6128C40.8234 43.6325 41.0034 43.6128 40.7934 43.6128C40.8634 43.6128 40.7934 43.6128 40.9534 43.6128C41.1134 43.6128 41.0534 43.5239 41.1334 43.514C41.1406 43.5398 41.1406 43.5672 41.1334 43.593C41.1334 43.6918 41.4234 43.4646 41.0634 43.356C40.8648 43.4389 40.6847 43.5597 40.5334 43.7115C40.5334 43.6325 40.6034 43.5338 40.5334 43.4646C40.6534 43.4646 40.6534 43.2671 40.8034 43.2473C40.9534 43.2276 40.8034 43.3263 40.8034 43.3461C40.9434 43.3461 40.8034 43.3461 40.8934 43.0992C40.8334 43.0992 40.8934 43.0498 40.6934 43.0992C40.4934 43.1486 40.5934 43.03 40.4534 43.3461C40.4034 43.3461 40.5534 43.2375 40.3634 43.0399C40.3634 43.0399 40.2834 43.0399 40.2334 43.0893M37.9034 34.8621C37.8034 35.0202 37.8434 34.8621 37.9634 35.3658C37.8934 35.4942 37.7834 35.4449 37.8234 35.8696C37.5834 35.9979 36.2634 35.7708 36.4834 36.6202C36.4834 36.6202 36.0834 37.035 36.4834 37.2621C36.4834 37.3905 36.3234 37.4498 36.5834 37.6375C36.6041 37.6745 36.6346 37.7054 36.6715 37.7269C36.7084 37.7484 36.7505 37.7597 36.7934 37.7597C36.8363 37.7597 36.8783 37.7484 36.9153 37.7269C36.9522 37.7054 36.9826 37.6745 37.0034 37.6375C37.3134 37.4992 37.2034 38.4473 37.6534 37.8844C37.7653 37.9094 37.8815 37.9094 37.9934 37.8844L38.1234 37.9733C38.2434 37.8844 38.1234 37.8745 38.4634 37.9733C38.4903 37.9385 38.5252 37.9105 38.5651 37.8916C38.6051 37.8727 38.6491 37.8635 38.6934 37.8646L38.7934 38.23H38.7134C38.7134 38.5362 38.8934 38.6844 38.9234 38.9708C38.4773 38.9615 38.0342 39.0457 37.6234 39.2177C37.2634 38.5461 35.7934 38.5263 35.8834 40.2054C35.8635 40.2242 35.8486 40.2475 35.8399 40.2733C35.8312 40.2991 35.8289 40.3267 35.8334 40.3535C35.8972 40.3321 35.9578 40.3022 36.0134 40.2646C35.9719 40.5562 35.9719 40.8521 36.0134 41.1436C36.1444 41.0378 36.2359 40.8918 36.2734 40.7288C36.3264 40.896 36.3264 41.0752 36.2734 41.2424C36.3434 41.0449 36.7034 41.1436 36.8634 40.5412C36.8634 40.7387 36.9334 40.9757 36.8034 41.0942C36.8484 41.0762 36.8892 41.0493 36.9234 41.0152C37.5434 41.4498 36.5234 38.8128 37.5334 39.4844C37.1334 40.0671 38.2334 41.3214 37.2534 42.3881C37.2211 42.8389 37.0579 43.2709 36.7834 43.6325C36.7834 43.6325 36.7834 43.6325 36.8334 43.6325C36.8334 43.6325 36.8334 43.6325 36.8834 43.6325C36.9334 43.6325 36.8834 43.6325 36.8334 43.9387C36.4934 44.1955 36.9834 42.951 36.0434 42.951C36.7634 43.1091 35.9234 45.2226 37.9834 44.7486V44.877C37.9052 44.9496 37.8135 45.0067 37.7134 45.0449C38.4134 44.8868 39.9434 46.3584 41.0034 45.272C41.0034 45.114 41.4434 45.43 41.3334 44.8375C41.4034 44.8375 41.3334 44.7288 41.6234 44.7091H41.6934C41.6934 44.7091 41.7734 44.7091 41.9234 44.7091C42.0734 44.7091 41.9234 44.8473 42.3734 44.9263C42.4125 44.8775 42.446 44.8245 42.4734 44.7683C42.8634 44.6103 43.6334 44.9461 43.6834 44.1955C43.6503 44.2536 43.6135 44.3097 43.5734 44.3634C43.5734 44.3634 43.5734 44.3634 43.6634 44.2745C43.6634 44.3535 43.5834 44.4424 43.5434 44.4523C43.5034 44.4621 43.6634 44.1955 43.5434 44.0671C43.5494 44.1392 43.5324 44.2113 43.4947 44.2733C43.457 44.3353 43.4006 44.3841 43.3334 44.4128C43.3334 44.4128 43.3834 44.2152 43.3334 44.1757C43.3346 44.2041 43.3288 44.2324 43.3167 44.2582C43.3045 44.284 43.2862 44.3065 43.2634 44.3239C43.2634 44.3239 43.2634 44.2152 43.2634 44.2054C43.2541 44.2524 43.2327 44.2962 43.2011 44.3325C43.1696 44.3689 43.129 44.3965 43.0834 44.4128C43.0834 44.4128 43.0834 44.4128 43.0834 44.3239C43.0834 44.235 43.0834 44.3831 42.9934 44.3831C42.9034 44.3831 42.9934 44.2942 42.9434 44.2745C42.8934 44.2547 42.9434 44.3436 42.8834 44.3634C42.8234 44.3831 42.8834 44.2844 42.8334 44.2646C42.7834 44.2449 42.8334 44.2646 42.8334 44.3239C42.8105 44.2325 42.7659 44.1479 42.7034 44.077C42.7734 44.077 42.7034 43.9782 42.7734 43.9486C42.8434 43.9189 42.7734 43.9486 42.8634 43.9486C42.9534 43.9486 42.8634 43.8794 42.8634 43.8597C42.8634 43.8399 42.8634 43.8597 42.9234 43.8597C42.9834 43.8597 42.9234 43.8004 42.9234 43.7708C42.9234 43.7412 42.9734 43.7708 43.0034 43.7115C43.035 43.722 43.0635 43.7402 43.0862 43.7643C43.1089 43.7885 43.1251 43.8179 43.1334 43.8498C43.1581 43.7626 43.1581 43.6703 43.1334 43.5831C43.1334 43.5831 43.1334 43.5831 43.2034 43.5831C43.2734 43.5831 43.2834 43.7214 43.2734 43.7609C43.2634 43.8004 43.2734 43.6226 43.2734 43.5535C43.2734 43.4844 43.3334 43.6424 43.3734 43.6918C43.3734 43.3658 42.9834 43.4547 42.4934 43.8399C42.4934 43.751 42.3534 43.7115 42.3034 43.6128C42.3419 43.5487 42.3689 43.4785 42.3834 43.4054C42.3834 43.4054 42.2834 43.4054 42.2634 43.3165C42.2728 43.2842 42.2728 43.25 42.2634 43.2177C42.2634 43.2177 42.1734 43.2177 42.1334 43.2177C42.0237 42.5483 41.8632 41.888 41.6534 41.2424C41.6534 41.3708 41.6534 41.2424 41.6534 41.2424L41.8934 41.3412C42.0634 41.3905 42.5834 40.7288 43.2834 40.5905C43.4234 40.7486 43.1234 40.9856 42.9734 41.4597C42.9134 41.4597 42.9734 41.5584 42.9134 41.6177C42.6334 41.6177 42.6634 41.3214 42.5334 42.0325C42.8134 42.0325 42.5334 42.0325 43.0934 41.9337C43.5234 41.6375 43.5434 41.2819 43.7534 40.2646C43.3434 39.7807 43.6834 39.9782 42.2634 40.2646C42.4034 39.9288 42.2034 40.0473 42.0034 38.8325C42.1434 38.9017 42.1434 38.9412 42.4134 38.6449C42.3634 38.6449 42.5334 38.9115 42.7334 38.7239C42.7334 38.7239 42.7334 38.7239 42.7934 38.7239C42.8534 38.7239 42.7934 38.7239 42.9334 38.7239C43.3034 38.5856 43.4234 38.5263 43.0734 37.2918C43.0734 37.2918 43.1434 37.2918 43.1334 37.2918H43.3034C43.2434 37.1733 43.3034 37.0054 43.2234 36.9066L43.3434 36.7881C43.249 36.7456 43.147 36.7221 43.0434 36.7189C43.0434 36.7189 43.0434 36.6696 42.7834 36.63C42.7834 36.5609 42.8934 36.4918 42.9434 36.4128C42.8337 36.4016 42.7231 36.4016 42.6134 36.4128C42.6134 36.4128 42.6134 36.4128 42.3534 36.3535C42.0934 36.2942 42.1134 36.1066 41.3534 36.3535C41.3975 36.3513 41.4415 36.3612 41.4803 36.3822C41.5191 36.4031 41.5513 36.4342 41.5734 36.472C41.2734 36.472 41.3734 36.3337 40.8934 36.63C40.8523 36.6434 40.8153 36.6666 40.7856 36.6977C40.7559 36.7287 40.7345 36.7666 40.7234 36.8078H40.8434C40.7834 36.8868 40.4434 36.8078 40.4034 36.9757C40.5434 36.9757 40.4834 36.9757 40.7234 36.9757C40.5434 37.0449 40.7234 36.9757 40.3234 37.3214C40.3012 37.1715 40.2422 37.0292 40.1516 36.907C40.061 36.7847 39.9414 36.6863 39.8034 36.6202C39.8034 36.6202 39.7434 36.6202 39.8034 36.4226C39.8634 36.4226 39.9034 36.4819 40.0134 36.3634C40.5334 36.7387 40.6534 34.8621 39.4734 35.514C39.9134 35.03 41.0234 36.1461 40.0234 36.3535L40.1034 36.2844C40.1034 36.2844 40.1034 36.1165 40.2534 36.0868C40.2588 36.0277 40.2588 35.9682 40.2534 35.9091C40.2659 35.8828 40.2723 35.8541 40.2723 35.8251C40.2723 35.7961 40.2659 35.7674 40.2534 35.7412C40.2534 35.7905 40.2534 35.8696 40.1934 35.8992C40.1334 35.9288 40.1934 35.7412 40.1934 35.7115C40.2135 35.7623 40.2135 35.8187 40.1934 35.8696C40.1934 35.8696 40.1934 35.8202 40.1934 35.7807C40.1934 35.7412 40.1934 35.83 40.1934 35.8498C40.1934 35.8696 40.1334 35.7807 40.0734 35.7807C39.8434 35.7807 39.6734 36.077 39.6234 36.2745C39.6234 36.2745 39.4234 36.2745 39.5034 36.0671C39.4234 36.156 39.2834 36.1856 39.5034 35.8498C39.3934 35.8498 39.3434 36.0078 39.2834 36.1066C39.2834 36.0276 39.1234 35.9486 39.4134 35.751C39.3134 35.751 39.4134 35.751 39.2134 35.8696C39.1034 35.7708 39.2734 35.593 39.6834 35.4646C39.6834 35.4646 39.6834 35.4646 39.4534 35.5436C39.3234 35.5436 38.9334 35.9881 39.3334 36.1165C39.3334 36.2449 39.4634 36.1165 39.2834 36.3634C38.9684 36.1201 38.6031 35.9482 38.2134 35.8597V35.7609C38.2634 35.6523 38.3034 35.6621 38.1134 35.4547C38.1134 35.4547 38.1134 35.4547 37.9734 35.4547C37.8334 35.4547 38.2234 35.1486 38.0034 34.7733L37.9034 34.8621Z" fill="#808D9C"/>
<path d="M53.7234 49.5288C53.5934 49.5288 53.5634 49.8053 53.8034 49.6967C53.8034 49.6177 53.8734 49.6177 53.7234 49.5288ZM53.7234 49.8152C53.7234 49.8152 53.3234 49.5683 53.7234 49.43C53.7334 49.3313 54.1234 49.7263 53.7234 49.8152ZM51.2034 44.7683C51.3134 44.8671 51.3134 44.7683 51.2034 44.7683C51.0934 44.6695 51.0734 45.1732 51.2034 44.7683ZM51.2034 45.0646C51.0134 45.1732 50.9234 44.3634 51.4034 44.8572C51.4034 44.9658 51.4134 44.8671 51.2034 45.0646ZM58.7734 51.1683L57.9334 53.7461C57.7784 53.2199 57.7313 52.6685 57.7948 52.1241C57.8584 51.5797 58.0313 51.0533 58.3034 50.5757C58.3534 51.2078 58.7434 51.1683 58.7434 51.1683M57.7434 51.6424C57.63 51.9362 57.4444 52.1975 57.2034 52.4029C57.0034 51.6325 57.5434 50.1609 58.2034 48.7584C58.3161 48.8194 58.4455 48.8436 58.573 48.8276C58.7005 48.8117 58.8196 48.7563 58.9134 48.6695C58.7134 49.2621 58.2434 50.5263 57.7934 51.6424H57.7434ZM57.5134 50.1214C57.3058 50.6624 57.0046 51.1637 56.6234 51.6029C56.6601 50.4627 57.0396 49.3591 57.7134 48.4325C57.7546 48.4369 57.7964 48.4311 57.8348 48.4155C57.8732 48.4 57.9071 48.3753 57.9334 48.3436C57.9902 48.4788 58.0716 48.6027 58.1734 48.7091L57.5134 50.1214ZM56.6134 50.1708C56.5122 50.3001 56.3983 50.4192 56.2734 50.5263C56.3257 49.6823 56.6129 48.8688 57.1034 48.1757C57.143 48.1834 57.1838 48.1834 57.2234 48.1757C57.2234 48.1757 57.1734 48.4226 57.6234 48.4819C57.3434 48.9362 57.3134 49.0053 56.6234 50.2004M56.3634 49.2128C56.2212 49.3921 56.0486 49.5458 55.8534 49.6671C55.8313 49.0397 56.0251 48.4234 56.4034 47.9189L56.5634 47.6523C56.5634 47.5436 56.5634 48.1658 57.0334 48.1955C57.0334 48.1955 56.4234 49.1831 56.3634 49.1831M56.4934 47.6325C56.1966 48.1634 55.7914 48.6275 55.3034 48.9955C55.2616 48.7608 55.2741 48.5199 55.3399 48.2908C55.4057 48.0616 55.5231 47.8501 55.6834 47.672C55.6834 47.672 55.9834 47.2276 55.9834 47.2276C55.9834 47.2276 55.8934 47.6424 56.4934 47.6325ZM54.9334 47.9584C54.8634 47.5239 55.3334 47.0498 55.6534 46.8029C55.7334 46.8918 55.5434 47.0103 56.0534 47.0893C56.0468 47.1252 56.0468 47.162 56.0534 47.1979C55.9848 47.2906 55.9114 47.3796 55.8334 47.4646C55.5913 47.7056 55.2869 47.8764 54.9534 47.9584M55.6634 46.7436C55.3742 46.9594 55.0255 47.0834 54.6634 47.0992C54.826 46.7639 55.1018 46.495 55.4434 46.3387C55.5634 46.635 55.7134 46.6053 55.7134 46.6053C55.6872 46.6475 55.6701 46.6946 55.6634 46.7436ZM59.2234 47.2868C59.4934 47.5337 59.4834 47.9288 59.5534 48.2745C59.4534 48.9757 59.7134 48.0671 58.8534 51.0794C57.6034 50.714 59.9334 49.4695 57.9834 48.1955C57.9834 48.1955 57.6134 48.6695 57.3534 48.0572C57.4334 47.9387 56.7334 48.3732 56.7134 47.5436C56.8034 47.4251 56.0734 47.8498 56.1334 47.03C56.2634 47.03 55.5134 47.1091 55.8234 46.5658C55.8234 46.5658 55.5534 46.5658 55.5134 46.309L56.5734 45.7856C56.5734 45.9634 56.4034 47.9091 58.3334 46.9115C58.5027 46.8957 58.6732 46.9228 58.8289 46.9902C58.9847 47.0576 59.1204 47.1631 59.2234 47.2967M50.3134 38.9313L52.9134 39.8103C52.9134 39.8103 52.6534 40.1066 53.1434 40.5115C52.0834 39.9486 51.8234 40.7881 50.3134 38.9313ZM52.9334 41.2523C52.2157 41.098 51.5528 40.757 51.0134 40.2646C52.0134 40.0967 53.6734 40.7979 55.0934 41.1436C54.6834 41.2918 54.6534 41.43 54.6034 41.6572L52.9334 41.2523ZM51.3234 41.2523C52.4403 41.2644 53.5478 41.4545 54.6034 41.8152C54.627 41.9568 54.6816 42.0916 54.7634 42.2103C54.7051 42.19 54.6416 42.19 54.5834 42.2103C53.4276 42.1702 52.3031 41.8295 51.3234 41.2226M53.9334 42.8029C53.244 42.7125 52.5824 42.4767 51.9934 42.1115C52.8337 42.0805 53.675 42.1368 54.5034 42.2794C54.5034 42.2794 54.3634 42.4572 54.5034 42.7634L54.4134 42.8523L53.9334 42.8029ZM54.2334 43.5732C53.5934 43.564 52.9732 43.3529 52.4634 42.9708C52.6795 42.8838 52.91 42.837 53.1434 42.8325C53.2234 42.8325 54.3734 42.9115 54.3734 42.9115C54.3734 42.9115 54.1234 43.2671 54.5434 43.593L54.2334 43.5732ZM53.9734 44.2646C53.7326 44.2816 53.491 44.2472 53.265 44.1637C53.0389 44.0802 52.8337 43.9495 52.6634 43.7807C53.261 43.6123 53.8869 43.5653 54.5034 43.6424C54.4334 43.7708 54.1934 43.8695 54.5034 44.2844C54.5034 44.2844 54.0034 44.2844 53.9534 44.2844M53.2634 44.7584C53.439 44.607 53.6438 44.4922 53.8655 44.4209C54.0872 44.3496 54.3212 44.3233 54.5534 44.3436C54.5534 44.3436 54.6134 44.3436 54.6434 44.3436C54.6734 44.3436 54.3834 44.4621 54.6434 44.8276C54.2634 44.9362 53.5834 45.0251 53.2634 44.7091M53.8034 45.4498C53.9434 45.2918 53.7034 45.3412 54.6834 44.8572C54.7261 44.885 54.7735 44.9051 54.8234 44.9165C54.8234 44.9165 54.7234 45.0152 54.8934 45.2819C54.5608 45.4613 54.1754 45.5206 53.8034 45.4498ZM52.9334 40.1461C52.9334 40.1461 52.9334 39.9091 52.9334 39.83C53.8694 40.1239 54.7792 40.4939 55.6534 40.9362C55.6034 41.2325 56.6534 41.2128 56.0634 42.7041C56.0634 43.0399 53.9634 43.5041 55.9534 44.7584C55.5934 44.9461 54.9534 45.2226 54.8934 45.2819C54.7434 45.1337 54.8934 44.8868 54.8934 44.8868C54.8934 44.8868 54.2634 44.8078 54.7034 44.3732C54.8934 44.4325 54.0034 43.9881 54.6234 43.6128C54.8134 43.6918 53.9534 43.1683 54.5734 42.8029C54.7334 42.8029 54.0334 42.3979 54.8334 42.2103C54.5134 40.8177 55.6134 41.5189 52.9134 40.1461M52.3934 53.6374L51.7534 54.951L50.9334 54.5658L51.3734 53.6671C51.7056 53.7053 52.0412 53.7053 52.3734 53.6671M53.0034 53.4695L52.8334 53.8152L52.4534 53.6473C52.6417 53.6044 52.8258 53.5449 53.0034 53.4695ZM47.6334 54.3486L48.6334 52.3733C49.0694 52.7655 49.5572 53.0978 50.0834 53.3609L49.2434 55.1189L47.6334 54.3486ZM47.2834 55.8992L45.2834 54.9609C45.4834 54.9016 45.4234 54.9609 46.1934 54.5362L47.6734 55.2177L47.2834 55.8992ZM38.7834 55.6918C38.3954 55.8317 37.9802 55.8822 37.5694 55.8394C37.1587 55.7966 36.7632 55.6617 36.4134 55.4449L39.6034 53.8844L40.1434 54.1313C39.8983 54.798 39.4145 55.3531 38.7834 55.6918ZM38.9334 53.5387L36.3034 54.8523C36.3926 54.4621 36.5608 54.0938 36.798 53.7696C37.0352 53.4454 37.3363 53.172 37.6834 52.9658L38.9334 53.5387ZM42.9934 49.3313C43.5264 49.1286 44.1069 49.0804 44.6667 49.1924C45.2264 49.3044 45.7422 49.5719 46.1534 49.9634L41.7734 52.1658C41.8834 51.0794 42.1734 49.6868 42.9934 49.3313ZM41.9934 52.7683L46.5734 50.5263C46.7534 52.5016 45.0434 54.9905 41.9934 52.7683ZM23.8534 47.672H23.5234C23.6634 48.1856 21.7934 48.7782 22.2934 47.1683C22.049 46.8824 21.8919 46.5339 21.8402 46.1632C21.7886 45.7925 21.8446 45.415 22.0018 45.0746C22.1589 44.7342 22.4108 44.4448 22.7279 44.2402C23.0451 44.0356 23.4146 43.9242 23.7934 43.9189C23.8634 43.3955 25.4034 43.1979 25.0534 44.5313C25.2606 44.7979 25.3955 45.1123 25.4453 45.4448C25.4951 45.7773 25.4582 46.1169 25.338 46.4313C25.2179 46.7458 25.0185 47.0248 24.7587 47.2419C24.4989 47.459 24.1873 47.607 23.8534 47.672ZM60.1434 43.3066C59.973 43.0594 59.7363 42.8639 59.4598 42.7421C59.1833 42.6202 58.8779 42.5769 58.5778 42.6169C58.2778 42.6569 57.9949 42.7786 57.761 42.9685C57.5271 43.1583 57.3513 43.4088 57.2534 43.6918C56.7834 44.0572 56.6734 44.3634 56.7034 44.6004L47.7034 49.1337C46.8134 48.3831 48.2734 40.3634 50.4534 45.9535C50.4534 45.7955 50.6034 43.8399 51.1634 46.2202C51.2261 45.9048 51.3997 45.6214 51.6534 45.4202C51.6534 41.2029 44.7034 42.2004 46.1834 48.3831C43.4334 46.6745 40.5734 48.6597 40.4134 51.8695C39.646 51.5934 38.8199 51.5152 38.0134 51.6424L27.6634 46.8819L27.1334 46.6547L27.8534 45.1732C27.7534 45.1732 27.5534 45.0547 27.0834 44.8276C27.0426 44.6457 26.9612 44.4752 26.8454 44.3283C26.7295 44.1813 26.5819 44.0618 26.4134 43.9782C26.5134 43.6819 26.5534 43.8498 25.9934 42.9905C26.2834 42.4473 25.5134 40.8078 24.2634 42.1905C23.7834 41.9535 24.2634 42.0819 23.2634 42.4967C22.8634 42.3979 21.8734 42.3387 21.3134 43.7016C21.3134 43.7016 19.7634 43.7016 20.5634 45.2819C20.1434 45.9239 19.9034 46.3683 20.8534 47.514C20.7534 47.8004 20.7134 47.6523 21.2834 48.5016C20.9934 49.035 21.7534 50.6646 23.0134 49.2918C23.4834 49.5288 23.0134 49.4004 24.0134 48.9856C24.1859 49.0637 24.3735 49.1042 24.5634 49.1042C24.7532 49.1042 24.9408 49.0637 25.1134 48.9856L25.8734 49.3411L26.5334 47.9683L36.3234 52.4424C35.6882 53.0686 35.2804 53.8846 35.1634 54.7634C34.0234 53.0251 28.6034 54.3584 30.1634 57.2819C30.3734 56.2942 31.8434 53.8449 34.6834 55.7412C24.5734 60.6794 31.6234 58.1411 35.0034 56.1856C34.8534 57.0053 34.7734 60.3831 31.0634 59.0202C31.7734 60.8671 36.4534 60.5708 36.0634 56.6004C38.9334 57.6572 39.8734 56.9757 41.2834 54.7239L50.4634 58.9214C50.4134 58.9214 52.0634 59.0103 51.0534 57.6967C51.0534 57.6967 50.6934 57.5189 50.0534 57.2325L50.3834 56.551L51.9234 57.2523L53.6234 53.6967L53.1534 53.4794C54.4034 53.2226 55.5134 49.5288 53.4734 49.1041C53.1594 49.1863 52.8259 49.1548 52.5334 49.0152C52.7034 49.4794 53.9634 50.793 52.3334 49.7362C55.7234 54.1016 48.4334 51.8399 47.9434 49.8844L57.0634 45.4202C57.2334 45.5881 57.5134 45.6473 58.1134 45.4794C58.8634 45.6177 60.5934 45.4794 60.1134 43.4053" fill="#FABC42"/>
</svg>
